<svg width="16" height="16" viewBox="0 0 16 16" fill="none" xmlns="http://www.w3.org/2000/svg">
<path d="M8.30754 7.76182H3.76686C3.59295 7.76182 3.45117 7.62004 3.45117 7.44612C3.45117 7.27221 3.59295 7.13043 3.76686 7.13043H8.30754C8.48145 7.13043 8.62323 7.27221 8.62323 7.44612C8.62323 7.62004 8.48145 7.76182 8.30754 7.76182V7.76182Z" fill="#33A6FF"/>
<path d="M6.82927 9.35349H3.76686C3.59295 9.35349 3.45117 9.21171 3.45117 9.0378C3.45117 8.86388 3.59295 8.72211 3.76686 8.72211H6.82927C7.00318 8.72211 7.14496 8.86388 7.14496 9.0378C7.14496 9.21171 7.00318 9.35349 6.82927 9.35349V9.35349Z" fill="#33A6FF"/>
<path d="M8.30754 11.0284H3.76686C3.59295 11.0284 3.45117 10.8866 3.45117 10.7127C3.45117 10.5388 3.59295 10.397 3.76686 10.397H8.30754C8.48145 10.397 8.62323 10.5388 8.62323 10.7127C8.62323 10.8866 8.48145 11.0284 8.30754 11.0284V11.0284Z" fill="#33A6FF"/>
<path fill-rule="evenodd" clip-rule="evenodd" d="M8.17942 3.1134H2.89662C2.08565 3.1134 1.42969 3.76936 1.42969 4.58033V11.4216C1.42969 12.2307 2.08565 12.8866 2.89473 12.8866H13.4052C14.0479 12.8866 14.5697 12.3649 14.5697 11.7222V6.97599C14.3544 7.16614 14.118 7.33296 13.8646 7.47249V11.293C13.8646 11.7751 13.4751 12.1645 12.9931 12.1645H2.92119C2.4883 12.1645 2.13669 11.8186 2.13669 11.3932V6.34594C2.13669 5.92061 2.4883 5.57467 2.92119 5.57467H8.37964C8.17925 5.1042 8.06836 4.58645 8.06836 4.0428C8.06836 3.72256 8.10684 3.4113 8.17942 3.1134ZM6.48076 4.33647C6.48076 4.09262 6.28227 3.89224 6.03653 3.89224C5.79078 3.89224 5.59229 4.09073 5.59229 4.33647C5.59229 4.58222 5.79078 4.78071 6.03653 4.78071C6.28227 4.78071 6.48076 4.58033 6.48076 4.33647ZM4.99493 4.33647C4.99493 4.09262 4.79644 3.89224 4.55258 3.89224C4.30683 3.89224 4.10835 4.09073 4.10835 4.33647C4.10835 4.58222 4.30873 4.78071 4.55258 4.78071C4.79644 4.78071 4.99493 4.58033 4.99493 4.33647ZM3.51099 4.33647C3.51099 4.09262 3.3125 3.89224 3.06864 3.89224C2.82289 3.89224 2.6244 4.09073 2.6244 4.33647C2.6244 4.58222 2.82478 4.78071 3.06864 4.78071C3.3125 4.78071 3.51099 4.58033 3.51099 4.33647Z" fill="white"/>
<circle cx="12.9195" cy="3.10366" r="2.97316" fill="#FFDF72"/>
</svg>
