<svg xmlns="http://www.w3.org/2000/svg" xmlns:xlink="http://www.w3.org/1999/xlink" width="16" height="16" viewBox="0 0 16 16">
  <defs>
    <clipPath id="clip-Basic__error">
      <rect width="16" height="16"/>
    </clipPath>
  </defs>
  <g id="Basic__error" data-name="Basic _error" clip-path="url(#clip-Basic__error)">
    <g id="Group_3899" data-name="Group 3899" transform="translate(69.981 36.989)">
      <path id="Path_1574" data-name="Path 1574" d="M-54.017-29.885l-2.012-3.483-2.01-3.483a.281.281,0,0,0-.383-.1.253.253,0,0,0-.1.1l-2.01,3.483-2.011,3.483a.275.275,0,0,0,.1.377h0a.269.269,0,0,0,.139.038h8.045a.278.278,0,0,0,.278-.277.3.3,0,0,0-.037-.14Zm-3.816-.774a.448.448,0,0,1-.447.447h0a.447.447,0,0,1-.446-.447v-.2a.444.444,0,0,1,.444-.446h0a.448.448,0,0,1,.447.446Zm0-1.533a.448.448,0,0,1-.447.447h0a.447.447,0,0,1-.446-.447v-2.627a.444.444,0,0,1,.445-.447h0a.448.448,0,0,1,.447.447h0Z" fill="#ffaf00"/>
      <path id="Path_1834" data-name="Path 1834" d="M-62.606-27.149H-67.97a.37.37,0,0,0-.37.369.369.369,0,0,0,.369.371h5.365a.369.369,0,0,0,.371-.369.37.37,0,0,0-.369-.371Z" transform="translate(0 -0.121)" fill="#009bdd"/>
      <path id="Path_1835" data-name="Path 1835" d="M-67.873-24.879h3.617a.37.37,0,0,0,.37-.371.372.372,0,0,0-.37-.369h-3.617a.371.371,0,0,0-.369.371A.37.37,0,0,0-67.873-24.879Z" transform="translate(0 -0.139)" fill="#009bdd"/>
      <path id="Path_1836" data-name="Path 1836" d="M-67.97-23.411h5.364a.369.369,0,0,0,.371-.369.37.37,0,0,0-.369-.371H-67.97a.37.37,0,0,0-.37.369.369.369,0,0,0,.369.371Z" transform="translate(0 -0.157)" fill="#009bdd"/>
      <path id="Path_1837" data-name="Path 1837" d="M-66.591-31.03H-67.9a.37.37,0,0,0-.37.369.369.369,0,0,0,.369.371h1.315a.369.369,0,0,0,.371-.369.37.37,0,0,0-.369-.371Z" transform="translate(0 -0.073)" fill="#009bdd"/>
      <g id="Group_3888" data-name="Group 3888" transform="translate(-69.981 -32.713)">
        <path id="Path_1977" data-name="Path 1977" d="M-54.259-28.536h-.462v6.819H-68.958A.282.282,0,0,1-69.242-22v-6.643h6.462a1.22,1.22,0,0,1-.181-.078,1.208,1.208,0,0,1-.527-.651h-5.755v-2.549a.068.068,0,0,1,.069-.067h6.68l.428-.729h-7.108a.8.8,0,0,0-.807.8V-22a1.015,1.015,0,0,0,1.023,1.008h14.607a.368.368,0,0,0,.34-.224.371.371,0,0,0,.03-.142h0v-7.235A1.264,1.264,0,0,1-54.259-28.536Z" transform="translate(69.981 32.713)" fill="#4e6374"/>
      </g>
    </g>
  </g>
</svg>
