<svg width="17" height="17" viewBox="0 0 17 17" fill="none" xmlns="http://www.w3.org/2000/svg">
<path d="M12.5929 14.7569H11.3382C11.1648 14.7569 11.0241 14.6162 11.0241 14.4427C11.0241 14.2692 11.1648 14.1285 11.3382 14.1285H12.5929L12.6026 13.8568C12.6026 13.6833 12.7433 13.5426 12.9167 13.5426C13.0902 13.5426 13.2309 13.6833 13.2309 13.8568V14.117C13.2309 14.4678 12.9456 14.7549 12.5929 14.7549V14.7569ZM10.0835 14.7569H8.82882C8.65536 14.7569 8.51467 14.6162 8.51467 14.4427C8.51467 14.2692 8.65536 14.1285 8.82882 14.1285H10.0835C10.257 14.1285 10.3977 14.2692 10.3977 14.4427C10.3977 14.6162 10.257 14.7569 10.0835 14.7569ZM7.57412 14.7569H6.31942C6.14595 14.7569 6.00526 14.6162 6.00526 14.4427C6.00526 14.2692 6.14595 14.1285 6.31942 14.1285H7.57412C7.74758 14.1285 7.88828 14.2692 7.88828 14.4427C7.88828 14.6162 7.74758 14.7569 7.57412 14.7569ZM5.06471 14.7569H3.79844C3.62498 14.7491 3.49007 14.6046 3.49585 14.4311C3.50163 14.2577 3.64618 14.115 3.82157 14.1285H5.06471C5.23817 14.1285 5.37887 14.2692 5.37887 14.4427C5.37887 14.6162 5.23817 14.7569 5.06471 14.7569V14.7569ZM3.4997 13.6718C3.32624 13.6718 3.18555 13.5311 3.18555 13.3576V12.1029C3.18555 11.9294 3.32624 11.7887 3.4997 11.7887C3.67317 11.7887 3.81386 11.9294 3.81386 12.1029V13.3576C3.81386 13.5311 3.67317 13.6718 3.4997 13.6718V13.6718ZM12.9187 12.9162C12.7452 12.9162 12.6045 12.7755 12.6045 12.6021V11.3474C12.6045 11.1739 12.7452 11.0332 12.9187 11.0332C13.0921 11.0332 13.2328 11.1739 13.2328 11.3474V12.6021C13.2328 12.7755 13.0921 12.9162 12.9187 12.9162ZM3.52476 11.1604C3.48621 11.1604 3.44574 11.1527 3.40912 11.1373C3.24915 11.0718 3.16627 10.8925 3.22988 10.7325C3.32817 10.4897 3.55945 10.3336 3.82157 10.3336H4.69081C4.86427 10.3336 5.00496 10.4743 5.00496 10.6477C5.00496 10.8212 4.86427 10.9619 4.69081 10.9619H3.82157C3.77146 11.0853 3.65004 11.1604 3.52476 11.1604V11.1604ZM12.2229 10.9619H10.9682C10.7947 10.9619 10.654 10.8212 10.654 10.6477C10.654 10.4743 10.7947 10.3336 10.9682 10.3336H12.2229C12.3963 10.3336 12.537 10.4743 12.537 10.6477C12.537 10.8212 12.3963 10.9619 12.2229 10.9619ZM9.71348 10.9619H8.45877C8.28531 10.9619 8.14461 10.8212 8.14461 10.6477C8.14461 10.4743 8.28531 10.3336 8.45877 10.3336H9.71348C9.88694 10.3336 10.0276 10.4743 10.0276 10.6477C10.0276 10.8212 9.88694 10.9619 9.71348 10.9619ZM7.20407 10.9619H5.94936C5.7759 10.9619 5.63521 10.8212 5.63521 10.6477C5.63521 10.4743 5.7759 10.3336 5.94936 10.3336H7.20407C7.37753 10.3336 7.51823 10.4743 7.51823 10.6477C7.51823 10.8212 7.37753 10.9619 7.20407 10.9619Z" fill="white"/>
<path fill-rule="evenodd" clip-rule="evenodd" d="M8.36559 3H2.49562C1.66879 3 1 3.66879 1 4.49562V11.4707C1 12.2956 1.66879 12.9663 2.49562 12.9663H3.12394V12.2281H2.52068L2.51875 12.2262C2.07739 12.2262 1.7189 11.8735 1.7189 11.4399V6.29577C1.7189 5.86211 2.07739 5.50941 2.51875 5.50941H7.93865C7.90959 5.31273 7.89453 5.11149 7.89453 4.90674C7.89453 4.21811 8.06482 3.56926 8.36559 3ZM6.14987 4.24699C6.14987 3.99644 5.9475 3.79407 5.69695 3.79407C5.44639 3.79407 5.24402 3.99644 5.24402 4.24699C5.24402 4.49755 5.44639 4.69992 5.69695 4.69992C5.9475 4.69992 6.14987 4.49755 6.14987 4.24699ZM4.63691 4.24699C4.63691 3.99644 4.43453 3.79407 4.18398 3.79407C3.93342 3.79407 3.73105 3.99644 3.73105 4.24699C3.73105 4.49755 3.93342 4.69992 4.18398 4.69992C4.43453 4.69992 4.63691 4.49755 4.63691 4.24699ZM3.12394 4.24699C3.12394 3.99644 2.92157 3.79407 2.67101 3.79407C2.42046 3.79407 2.21808 3.99644 2.21808 4.24699C2.21808 4.49755 2.42046 4.69992 2.67101 4.69992C2.92157 4.69992 3.12394 4.49755 3.12394 4.24699Z" fill="white"/>
<path fill-rule="evenodd" clip-rule="evenodd" d="M8.51365 7.07062H6.60829C6.16016 7.07062 5.79688 7.4339 5.79688 7.88203V10.7808C5.79688 11.2289 6.16016 11.5922 6.60829 11.5922H14.4044C14.8525 11.5922 15.2158 11.2289 15.2158 10.7808V7.88203C15.2158 7.75022 15.1844 7.62575 15.1286 7.51571C14.7371 7.98743 14.2415 8.36967 13.677 8.62725C13.6409 8.76088 13.5188 8.8592 13.3737 8.8592H13.0277C12.6939 8.94727 12.3434 8.99419 11.982 8.99419C11.6205 8.99419 11.27 8.94727 10.9363 8.8592H7.35078C7.17727 8.8592 7.03662 8.71854 7.03662 8.54504C7.03662 8.37153 7.17727 8.23088 7.35078 8.23088H9.60293C9.16853 7.91943 8.79769 7.52494 8.51365 7.07062ZM7.35078 9.54338C7.17727 9.54338 7.03662 9.68403 7.03662 9.85754C7.03662 10.031 7.17727 10.1717 7.35078 10.1717H11.1303C11.3038 10.1717 11.4445 10.031 11.4445 9.85754C11.4445 9.68403 11.3038 9.54338 11.1303 9.54338H7.35078Z" fill="#33A6FF"/>
<path fill-rule="evenodd" clip-rule="evenodd" d="M8.33552 6.75641H6.60799C5.98739 6.75641 5.48242 7.26137 5.48242 7.88198V10.7807C5.48242 11.4013 5.98739 11.9063 6.60799 11.9063H14.4022C15.0228 11.9063 15.5278 11.4013 15.5278 10.7807V7.88198C15.5278 7.64723 15.4555 7.42904 15.3321 7.24845C15.1994 7.43798 15.051 7.61572 14.8888 7.77981C14.8958 7.81281 14.8994 7.84698 14.8994 7.88198V10.7807C14.8994 11.0544 14.6759 11.278 14.4022 11.278H6.60799C6.33431 11.278 6.11074 11.0544 6.11074 10.7807V7.88198C6.11074 7.6083 6.33431 7.38472 6.60799 7.38472H8.73056C8.58075 7.18849 8.44831 6.97828 8.33552 6.75641Z" fill="white"/>
<circle cx="13.0693" cy="3.99419" r="3" fill="#97DD40"/>
</svg>
