<svg xmlns="http://www.w3.org/2000/svg" xmlns:xlink="http://www.w3.org/1999/xlink" width="16" height="16" viewBox="0 0 16 16">
  <defs>
    <clipPath id="clip-Full_stack_cloud_error">
      <rect width="16" height="16"/>
    </clipPath>
  </defs>
  <g id="Full_stack_cloud_error" clip-path="url(#clip-Full_stack_cloud_error)">
    <g id="Group_3902" data-name="Group 3902" transform="translate(71.889 -7.765)">
      <path id="Path_1574" data-name="Path 1574" d="M-55.919,14.869l-2.012-3.483L-59.941,7.9a.281.281,0,0,0-.383-.1.253.253,0,0,0-.1.1l-2.01,3.483-2.011,3.483a.275.275,0,0,0,.1.377h0a.269.269,0,0,0,.139.038h8.045a.278.278,0,0,0,.278-.277.3.3,0,0,0-.037-.14Zm-3.816-.774a.447.447,0,0,1-.447.447h0a.447.447,0,0,1-.446-.447v-.2a.444.444,0,0,1,.444-.446h0a.447.447,0,0,1,.447.446Zm0-1.533a.447.447,0,0,1-.447.447h0a.447.447,0,0,1-.446-.447V9.935a.444.444,0,0,1,.445-.447h0a.448.448,0,0,1,.447.447h0Z" fill="#ffaf00"/>
      <path id="Path_1220" data-name="Path 1220" d="M-65.051,19.71l-1.965-1.355h0a.386.386,0,0,0-.285-.122c-.243,0-.369.139-.369.412a.272.272,0,0,0,.082.225,1.983,1.983,0,0,1,.163.141h0l1.472,1.029a.035.035,0,0,1,0,.049h0l-1.51,1.084h0l-.141.141a.209.209,0,0,0-.049.1.41.41,0,0,0,.319.487.431.431,0,0,0,.164,0,.292.292,0,0,0,.163-.07l1.965-1.4h0a.35.35,0,0,0,.2-.364h0a.237.237,0,0,0-.04-.225,1.7,1.7,0,0,1-.163-.141Z" fill="#0e92d0"/>
      <path id="Path_1221" data-name="Path 1221" d="M-61,19.026h-3.231a.415.415,0,0,1-.412-.4h0a.415.415,0,0,1,.412-.415H-61a.419.419,0,0,1,.415.415h0A.416.416,0,0,1-61,19.026Z" fill="#0e92d0"/>
      <path id="Path_1222" data-name="Path 1222" d="M-60.984,20.393h-2.168a.412.412,0,0,1-.415-.409h0a.412.412,0,0,1,.409-.415h2.174a.413.413,0,0,1,.416.408v.006h0a.413.413,0,0,1-.412.412h0Z" fill="#0e92d0"/>
      <path id="Path_1223" data-name="Path 1223" d="M-61,21.888h-3.231a.415.415,0,0,1-.412-.415h0a.415.415,0,0,1,.412-.415H-61a.419.419,0,0,1,.415.415h0A.42.42,0,0,1-61,21.888Z" fill="#0e92d0"/>
      <rect id="Rectangle_521" data-name="Rectangle 521" width="16" height="16" transform="translate(-71.883 7.765)" fill="none"/>
      <g id="Group_3895" data-name="Group 3895">
        <path id="Path_1993" data-name="Path 1993" d="M-58.265,16.285a1.624,1.624,0,0,1,.682.421,1.724,1.724,0,0,1,.471,1.22,1.743,1.743,0,0,1-.486,1.237,1.573,1.573,0,0,1-1.174.508h-.912V20.5h.915a2.37,2.37,0,0,0,.968-.191,2.463,2.463,0,0,0,.792-.559,2.758,2.758,0,0,0,.534-.815,2.575,2.575,0,0,0-.386-2.653Z" fill="#515f68"/>
        <path id="Path_1994" data-name="Path 1994" d="M-64.176,12.4a4.172,4.172,0,0,0-2.964.034,4.359,4.359,0,0,0-1.3.8,4.111,4.111,0,0,0-.928,1.2,3.915,3.915,0,0,0-.42,1.5l-.019.189-.161.017a2.251,2.251,0,0,0-1.361.732,2.082,2.082,0,0,0-.56,1.437,2.181,2.181,0,0,0,2.162,2.2h1.259v-.832h-1.246a1.259,1.259,0,0,1-.934-.408,1.34,1.34,0,0,1-.406-.957,1.293,1.293,0,0,1,.336-.894,1.257,1.257,0,0,1,.835-.432l.863-.1.069-.853a3.12,3.12,0,0,1,.347-1.19,3.451,3.451,0,0,1,.737-.98,3.248,3.248,0,0,1,1.018-.643,3.327,3.327,0,0,1,1.24-.23,3.243,3.243,0,0,1,1,.17Z" fill="#515f68"/>
      </g>
    </g>
  </g>
</svg>
