<svg width="17" height="17" viewBox="0 0 17 17" fill="none" xmlns="http://www.w3.org/2000/svg">
<g clip-path="url(#clip0_192_653)">
<path d="M12.5929 14.7569H11.3382C11.1648 14.7569 11.0241 14.6162 11.0241 14.4427C11.0241 14.2692 11.1648 14.1285 11.3382 14.1285H12.5929L12.6026 13.8568C12.6026 13.6833 12.7433 13.5426 12.9167 13.5426C13.0902 13.5426 13.2309 13.6833 13.2309 13.8568V14.117C13.2309 14.4678 12.9456 14.7549 12.5929 14.7549V14.7569ZM10.0835 14.7569H8.82882C8.65536 14.7569 8.51467 14.6162 8.51467 14.4427C8.51467 14.2692 8.65536 14.1285 8.82882 14.1285H10.0835C10.257 14.1285 10.3977 14.2692 10.3977 14.4427C10.3977 14.6162 10.257 14.7569 10.0835 14.7569ZM7.57412 14.7569H6.31942C6.14595 14.7569 6.00526 14.6162 6.00526 14.4427C6.00526 14.2692 6.14595 14.1285 6.31942 14.1285H7.57412C7.74758 14.1285 7.88828 14.2692 7.88828 14.4427C7.88828 14.6162 7.74758 14.7569 7.57412 14.7569ZM5.06471 14.7569H3.79844C3.62498 14.7491 3.49007 14.6046 3.49585 14.4311C3.50163 14.2577 3.64618 14.115 3.82157 14.1285H5.06471C5.23817 14.1285 5.37887 14.2692 5.37887 14.4427C5.37887 14.6162 5.23817 14.7569 5.06471 14.7569V14.7569ZM3.4997 13.6718C3.32624 13.6718 3.18555 13.5311 3.18555 13.3576V12.1029C3.18555 11.9294 3.32624 11.7887 3.4997 11.7887C3.67317 11.7887 3.81386 11.9294 3.81386 12.1029V13.3576C3.81386 13.5311 3.67317 13.6718 3.4997 13.6718V13.6718ZM12.9187 12.9162C12.7452 12.9162 12.6045 12.7755 12.6045 12.6021V11.3474C12.6045 11.1739 12.7452 11.0332 12.9187 11.0332C13.0921 11.0332 13.2328 11.1739 13.2328 11.3474V12.6021C13.2328 12.7755 13.0921 12.9162 12.9187 12.9162ZM3.52476 11.1604C3.48621 11.1604 3.44574 11.1527 3.40912 11.1373C3.24915 11.0718 3.16627 10.8925 3.22988 10.7325C3.32817 10.4897 3.55945 10.3336 3.82157 10.3336H4.69081C4.86427 10.3336 5.00496 10.4743 5.00496 10.6477C5.00496 10.8212 4.86427 10.9619 4.69081 10.9619H3.82157C3.77146 11.0853 3.65004 11.1604 3.52476 11.1604V11.1604ZM12.2229 10.9619H10.9682C10.7947 10.9619 10.654 10.8212 10.654 10.6477C10.654 10.4743 10.7947 10.3336 10.9682 10.3336H12.2229C12.3963 10.3336 12.537 10.4743 12.537 10.6477C12.537 10.8212 12.3963 10.9619 12.2229 10.9619ZM9.71348 10.9619H8.45877C8.28531 10.9619 8.14461 10.8212 8.14461 10.6477C8.14461 10.4743 8.28531 10.3336 8.45877 10.3336H9.71348C9.88694 10.3336 10.0276 10.4743 10.0276 10.6477C10.0276 10.8212 9.88694 10.9619 9.71348 10.9619ZM7.20407 10.9619H5.94936C5.7759 10.9619 5.63521 10.8212 5.63521 10.6477C5.63521 10.4743 5.7759 10.3336 5.94936 10.3336H7.20407C7.37753 10.3336 7.51823 10.4743 7.51823 10.6477C7.51823 10.8212 7.37753 10.9619 7.20407 10.9619Z" fill="white"/>
<path fill-rule="evenodd" clip-rule="evenodd" d="M6.60829 7.07062H14.4044C14.8525 7.07062 15.2158 7.4339 15.2158 7.88203V10.7808C15.2158 11.2289 14.8525 11.5922 14.4044 11.5922H6.60829C6.16016 11.5922 5.79688 11.2289 5.79688 10.7808V7.88203C5.79688 7.4339 6.16016 7.07062 6.60829 7.07062ZM7.03711 8.54505C7.03711 8.37155 7.17776 8.2309 7.35127 8.2309H13.3742C13.5477 8.2309 13.6884 8.37155 13.6884 8.54505C13.6884 8.71856 13.5477 8.85921 13.3742 8.85921H7.35127C7.17776 8.85921 7.03711 8.71856 7.03711 8.54505ZM7.03711 9.85755C7.03711 9.68405 7.17776 9.5434 7.35127 9.5434H11.1308C11.3043 9.5434 11.445 9.68405 11.445 9.85755C11.445 10.0311 11.3043 10.1717 11.1308 10.1717H7.35127C7.17776 10.1717 7.03711 10.0311 7.03711 9.85755Z" fill="#33A6FF"/>
<path d="M14.4041 11.9063H6.60799C5.98739 11.9063 5.48242 11.4013 5.48242 10.7807V7.88198C5.48242 7.26137 5.98739 6.75641 6.60799 6.75641H14.4022C15.0228 6.75641 15.5278 7.26137 15.5278 7.88198V10.7807C15.5278 11.4013 15.0228 11.9063 14.4022 11.9063H14.4041ZM6.60799 7.38472C6.33431 7.38472 6.11074 7.6083 6.11074 7.88198V10.7807C6.11074 11.0544 6.33431 11.278 6.60799 11.278H14.4022C14.6759 11.278 14.8994 11.0544 14.8994 10.7807V7.88198C14.8994 7.6083 14.6759 7.38472 14.4022 7.38472H6.60799Z" fill="white"/>
<path d="M2.51875 12.2262C2.07739 12.2262 1.7189 11.8735 1.7189 11.4399V6.29577C1.7189 5.86211 2.07739 5.50941 2.51875 5.50941H12.8782C13.3196 5.50941 13.6781 5.86018 13.6781 6.29577V6.61763H14.397V4.49562C14.397 3.67072 13.7282 3 12.9014 3H2.49562C1.66879 3 1 3.66879 1 4.49562V11.4707C1 12.2956 1.66879 12.9663 2.49562 12.9663H3.12394V12.2281H2.52068L2.51875 12.2262ZM5.69695 3.79407C5.9475 3.79407 6.14987 3.99644 6.14987 4.24699C6.14987 4.49755 5.9475 4.69992 5.69695 4.69992C5.44639 4.69992 5.24402 4.49755 5.24402 4.24699C5.24402 3.99644 5.44639 3.79407 5.69695 3.79407V3.79407ZM4.18398 3.79407C4.43453 3.79407 4.63691 3.99644 4.63691 4.24699C4.63691 4.49755 4.43453 4.69992 4.18398 4.69992C3.93342 4.69992 3.73105 4.49755 3.73105 4.24699C3.73105 3.99644 3.93342 3.79407 4.18398 3.79407V3.79407ZM2.67101 3.79407C2.92157 3.79407 3.12394 3.99644 3.12394 4.24699C3.12394 4.49755 2.92157 4.69992 2.67101 4.69992C2.42046 4.69992 2.21808 4.49755 2.21808 4.24699C2.21808 3.99644 2.42046 3.79407 2.67101 3.79407V3.79407Z" fill="white"/>
</g>
<defs>
<clipPath id="clip0_192_653">
<rect width="14.5303" height="11.7568" fill="white" transform="translate(1 3)"/>
</clipPath>
</defs>
</svg>
