<svg width="18" height="17" viewBox="0 0 18 17" fill="none" xmlns="http://www.w3.org/2000/svg">
<g clip-path="url(#clip0_192_785)">
<path d="M15.1838 7.38741C14.7254 6.89103 14.0854 6.60165 13.4116 6.58686H13.268L13.2109 6.41154C12.8096 5.18643 11.4916 4.51895 10.2664 4.92028C10.1989 4.9414 10.1334 4.96675 10.0679 4.99632L9.88835 5.07659L9.77429 4.94774C8.60832 3.48183 6.62279 2.95376 4.88439 3.64447C4.4028 3.83669 3.95711 4.11128 3.56845 4.45769C3.1819 4.80199 2.86295 5.216 2.62849 5.67858C2.38558 6.15173 2.24195 6.66924 2.20181 7.19942L2.1828 7.39163L2.01805 7.40853C1.48364 7.48668 0.995709 7.74861 0.636623 8.14994C0.269089 8.54493 0.0641989 9.06666 0.0684234 9.6074C0.0599744 10.8304 1.04429 11.8274 2.26729 11.8358H3.54099V10.9909H2.27574C1.91454 10.993 1.57025 10.8431 1.32733 10.5769C1.06541 10.3213 0.917555 9.97071 0.915443 9.60529C0.911218 9.27155 1.03162 8.94626 1.25763 8.69913C1.47308 8.44988 1.77725 8.29146 2.10465 8.25977L2.98124 8.15627L3.05094 7.29024C3.08685 6.86779 3.20725 6.4559 3.40369 6.08203C3.59168 5.70816 3.84516 5.37231 4.15144 5.08715C4.45349 4.80833 4.80201 4.58654 5.18433 4.43446C5.58566 4.27604 6.01234 4.19577 6.44325 4.2C6.95441 4.19789 7.46136 4.31406 7.91972 4.54007C8.38019 4.76397 8.78364 5.08715 9.1047 5.48637L9.62643 6.1454L10.4228 5.79898C10.5981 5.71027 10.7945 5.66169 10.991 5.66169C11.2951 5.66591 11.5908 5.76308 11.838 5.94262C12.0957 6.12427 12.2816 6.38831 12.366 6.69036L12.609 7.45289H13.3757C13.8341 7.45289 14.2713 7.63877 14.586 7.97039C14.9029 8.30413 15.074 8.74982 15.0634 9.20818C15.0719 9.67499 14.8944 10.127 14.5691 10.4629C14.2629 10.7966 13.8298 10.9846 13.3778 10.9783H12.4526V11.8232H13.382C13.72 11.8274 14.0537 11.7619 14.3642 11.6288C14.6684 11.4958 14.9409 11.3036 15.169 11.0628C15.3971 10.822 15.5809 10.541 15.7119 10.2347C16.128 9.26521 15.921 8.13938 15.1859 7.38107L15.1817 7.38741H15.1838Z" fill="white"/>
<path d="M7.0024 11.0227L5.00842 9.64763C4.93449 9.56737 4.82888 9.52301 4.71904 9.52301C4.4719 9.52301 4.34517 9.66453 4.34517 9.94124C4.33672 10.0257 4.36629 10.1102 4.42755 10.1694C4.48458 10.2137 4.5395 10.2623 4.5923 10.313L6.08567 11.3586C6.10046 11.3712 6.10046 11.3945 6.08567 11.4093L4.55428 12.5098L4.41065 12.6534C4.3853 12.683 4.3684 12.7168 4.35995 12.7548C4.31348 12.9808 4.45712 13.2026 4.68313 13.249C4.73805 13.2596 4.79508 13.2617 4.85 13.249C4.91125 13.2427 4.96829 13.2195 5.01476 13.1772L7.00873 11.7578C7.15026 11.6923 7.23264 11.5423 7.21151 11.3881C7.23686 11.31 7.22207 11.2234 7.17138 11.16C7.11224 11.1157 7.05732 11.0692 7.00662 11.0164L7.00029 11.0227H7.0024Z" fill="#33A6FF"/>
<path d="M11.1175 10.3278H7.83717C7.61116 10.3278 7.42739 10.1482 7.41895 9.9222C7.41895 9.69197 7.60482 9.50397 7.83717 9.50186H11.1175C11.3499 9.50397 11.5358 9.69197 11.5379 9.9222C11.5294 10.1482 11.3435 10.3278 11.1175 10.3278Z" fill="#33A6FF"/>
<path d="M11.129 11.7155H8.92799C8.69776 11.7155 8.50977 11.5297 8.50977 11.2994C8.50977 11.0692 8.69353 10.8812 8.92588 10.8791H11.1311C11.3613 10.8791 11.5514 11.0629 11.5535 11.2931V11.2994C11.5535 11.5297 11.3656 11.7177 11.1353 11.7177H11.129V11.7155Z" fill="#33A6FF"/>
<path d="M11.1175 13.2321H7.83717C7.60694 13.2321 7.41895 13.042 7.41895 12.8118C7.41895 12.5816 7.60482 12.3936 7.83717 12.3914H11.1175C11.3499 12.3936 11.5358 12.5816 11.5379 12.8118C11.5358 13.0441 11.3478 13.23 11.1175 13.2321Z" fill="#33A6FF"/>
</g>
<defs>
<clipPath id="clip0_192_785">
<rect width="15.8568" height="9.91076" fill="white" transform="translate(0.0693359 3.34465)"/>
</clipPath>
</defs>
</svg>
