<svg width="18" height="17" viewBox="0 0 18 17" fill="none" xmlns="http://www.w3.org/2000/svg">
<g clip-path="url(#clip0_192_775)">
<path d="M16.3078 7.38742C15.8495 6.89104 15.2095 6.60166 14.5356 6.58687H14.392L14.335 6.41156C13.9336 5.18644 12.6156 4.51897 11.3905 4.9203C11.3229 4.94142 11.2574 4.96677 11.1919 4.99634L11.0124 5.0766L10.8983 4.94776C9.73234 3.48184 7.74681 2.95378 6.00842 3.64449C5.52682 3.8367 5.08113 4.1113 4.69247 4.45771C4.30593 4.80201 3.98698 5.21601 3.75251 5.6786C3.5096 6.15175 3.36597 6.66925 3.32584 7.19943L3.30683 7.39165L3.14207 7.40855C2.60767 7.4867 2.11973 7.74862 1.76065 8.14995C1.39311 8.54495 1.18822 9.06668 1.19245 9.60742C1.184 10.8304 2.16831 11.8274 3.39132 11.8359H4.66501V10.991H3.39977C3.03857 10.9931 2.69427 10.8431 2.45136 10.5769C2.18944 10.3214 2.04158 9.97073 2.03947 9.6053C2.03524 9.27157 2.15564 8.94628 2.38165 8.69914C2.5971 8.44989 2.90127 8.29147 3.22867 8.25979L4.10526 8.15629L4.17497 7.29026C4.21088 6.86781 4.33128 6.45591 4.52772 6.08204C4.71571 5.70817 4.96918 5.37232 5.27546 5.08716C5.57751 4.80835 5.92604 4.58656 6.30836 4.43447C6.70969 4.27605 7.13637 4.19579 7.56727 4.20001C8.07844 4.1979 8.58538 4.31408 9.04374 4.54009C9.50422 4.76399 9.90766 5.08717 10.2287 5.48638L10.7505 6.14541L11.5468 5.799C11.7221 5.71028 11.9185 5.6617 12.115 5.6617C12.4191 5.66593 12.7149 5.76309 12.962 5.94263C13.2197 6.12429 13.4056 6.38832 13.4901 6.69038L13.733 7.4529H14.4997C14.9581 7.4529 15.3953 7.63878 15.7101 7.97041C16.0269 8.30415 16.198 8.74984 16.1874 9.2082C16.1959 9.67501 16.0184 10.127 15.6932 10.4629C15.3869 10.7966 14.9539 10.9846 14.5018 10.9783H13.5767V11.8232H14.5061C14.844 11.8274 15.1778 11.7619 15.4883 11.6289C15.7924 11.4958 16.0649 11.3036 16.293 11.0628C16.5212 10.822 16.7049 10.541 16.8359 10.2348C17.252 9.26523 17.045 8.13939 16.3099 7.38109L16.3057 7.38742H16.3078Z" fill="white"/>
<path d="M8.12642 11.0227L6.13244 9.64763C6.05851 9.56737 5.9529 9.52301 5.84306 9.52301C5.59593 9.52301 5.46919 9.66453 5.46919 9.94124C5.46074 10.0257 5.49031 10.1102 5.55157 10.1694C5.6086 10.2137 5.66352 10.2623 5.71633 10.313L7.2097 11.3586C7.22448 11.3712 7.22448 11.3945 7.2097 11.4093L5.6783 12.5098L5.53467 12.6534C5.50932 12.683 5.49243 12.7168 5.48398 12.7548C5.43751 12.9808 5.58114 13.2026 5.80715 13.249C5.86207 13.2596 5.9191 13.2617 5.97402 13.249C6.03528 13.2427 6.09231 13.2195 6.13878 13.1772L8.13276 11.7578C8.27428 11.6923 8.35666 11.5423 8.33554 11.3881C8.36088 11.31 8.3461 11.2234 8.2954 11.16C8.23626 11.1157 8.18134 11.0692 8.13065 11.0164L8.12431 11.0227H8.12642Z" fill="#33A6FF"/>
<path d="M12.2415 10.3278H8.9612C8.73518 10.3278 8.55142 10.1482 8.54297 9.9222C8.54297 9.69197 8.72885 9.50397 8.9612 9.50186H12.2415C12.4739 9.50397 12.6598 9.69197 12.6619 9.9222C12.6534 10.1482 12.4676 10.3278 12.2415 10.3278Z" fill="#33A6FF"/>
<path d="M12.253 11.7155H10.052C9.82178 11.7155 9.63379 11.5297 9.63379 11.2994C9.63379 11.0692 9.81756 10.8812 10.0499 10.8791H12.2551C12.4853 10.8791 12.6755 11.0629 12.6776 11.2931V11.2994C12.6776 11.5297 12.4896 11.7177 12.2593 11.7177H12.253V11.7155Z" fill="#33A6FF"/>
<path d="M12.2415 13.2321H8.9612C8.73096 13.2321 8.54297 13.042 8.54297 12.8118C8.54297 12.5816 8.72885 12.3936 8.9612 12.3914H12.2415C12.4739 12.3936 12.6598 12.5816 12.6619 12.8118C12.6598 13.0441 12.4718 13.23 12.2415 13.2321Z" fill="#33A6FF"/>
</g>
<circle cx="14.0693" cy="3.47064" r="3" fill="#97DD40"/>
<defs>
<clipPath id="clip0_192_775">
<rect width="17" height="11" fill="white" transform="translate(1 3)"/>
</clipPath>
</defs>
</svg>
