<svg width="19" height="17" viewBox="0 0 19 17" fill="none" xmlns="http://www.w3.org/2000/svg">
<path d="M17.2385 7.38742C16.7801 6.89104 16.1401 6.60166 15.4663 6.58687H15.3227L15.2656 6.41156C14.8643 5.18644 13.5463 4.51897 12.3211 4.9203C12.2535 4.94142 12.1881 4.96677 12.1226 4.99634L11.943 5.0766L11.829 4.94776C10.663 3.48184 8.67748 2.95378 6.93908 3.64449C6.45748 3.8367 6.01179 4.1113 5.62314 4.45771C5.23659 4.80201 4.91764 5.21601 4.68318 5.6786C4.44027 6.15175 4.29663 6.66925 4.2565 7.19943L4.23749 7.39165L4.07273 7.40855C3.53833 7.4867 3.0504 7.74862 2.69131 8.14995C2.32378 8.54495 2.11889 9.06668 2.12311 9.60742C2.11466 10.8304 3.09898 11.8274 4.32198 11.8359H5.59568V10.991H4.33043C3.96923 10.9931 3.62493 10.8431 3.38202 10.5769C3.1201 10.3214 2.97224 9.97073 2.97013 9.6053C2.96591 9.27157 3.0863 8.94628 3.31232 8.69914C3.52777 8.44989 3.83194 8.29147 4.15934 8.25979L5.03593 8.15629L5.10563 7.29026C5.14154 6.86781 5.26194 6.45591 5.45838 6.08204C5.64637 5.70817 5.89984 5.37232 6.20612 5.08716C6.50818 4.80835 6.8567 4.58656 7.23902 4.43447C7.64035 4.27605 8.06703 4.19579 8.49793 4.20001C9.0091 4.1979 9.51604 4.31408 9.97441 4.54009C10.4349 4.76399 10.8383 5.08717 11.1594 5.48638L11.6811 6.14541L12.4774 5.799C12.6528 5.71028 12.8492 5.6617 13.0456 5.6617C13.3498 5.66593 13.6455 5.76309 13.8927 5.94263C14.1504 6.12429 14.3362 6.38832 14.4207 6.69038L14.6636 7.4529H15.4304C15.8888 7.4529 16.326 7.63878 16.6407 7.97041C16.9576 8.30415 17.1287 8.74984 17.1181 9.2082C17.1265 9.67501 16.9491 10.127 16.6238 10.4629C16.3175 10.7966 15.8845 10.9846 15.4325 10.9783H14.5073V11.8232H15.4367C15.7747 11.8274 16.1084 11.7619 16.4189 11.6289C16.7231 11.4958 16.9956 11.3036 17.2237 11.0628C17.4518 10.822 17.6356 10.541 17.7666 10.2348C18.1827 9.26523 17.9757 8.13939 17.2406 7.38109L17.2364 7.38742H17.2385Z" fill="white"/>
<path d="M9.05709 11.0227L7.06311 9.64763C6.98918 9.56737 6.88356 9.52301 6.77373 9.52301C6.52659 9.52301 6.39985 9.66453 6.39985 9.94124C6.39141 10.0257 6.42098 10.1102 6.48223 10.1694C6.53926 10.2137 6.59418 10.2623 6.64699 10.313L8.14036 11.3586C8.15515 11.3712 8.15515 11.3945 8.14036 11.4093L6.60897 12.5098L6.46533 12.6534C6.43999 12.683 6.42309 12.7168 6.41464 12.7548C6.36817 12.9808 6.5118 13.2026 6.73782 13.249C6.79274 13.2596 6.84977 13.2617 6.90469 13.249C6.96594 13.2427 7.02297 13.2195 7.06944 13.1772L9.06342 11.7578C9.20494 11.6923 9.28732 11.5423 9.2662 11.3881C9.29155 11.31 9.27676 11.2234 9.22607 11.16C9.16692 11.1157 9.112 11.0692 9.06131 11.0164L9.05497 11.0227H9.05709Z" fill="#33A6FF"/>
<path d="M13.1722 10.3278H9.89186C9.66585 10.3278 9.48208 10.1482 9.47363 9.9222C9.47363 9.69197 9.65951 9.50397 9.89186 9.50186H13.1722C13.4046 9.50397 13.5904 9.69197 13.5926 9.9222C13.5841 10.1482 13.3982 10.3278 13.1722 10.3278Z" fill="#33A6FF"/>
<path d="M13.1837 11.7155H10.9827C10.7524 11.7155 10.5645 11.5297 10.5645 11.2994C10.5645 11.0692 10.7482 10.8812 10.9806 10.8791H13.1858C13.416 10.8791 13.6061 11.0629 13.6082 11.2931V11.2994C13.6082 11.5297 13.4202 11.7177 13.19 11.7177H13.1837V11.7155Z" fill="#33A6FF"/>
<path d="M13.1722 13.2321H9.89186C9.66162 13.2321 9.47363 13.042 9.47363 12.8118C9.47363 12.5816 9.65951 12.3936 9.89186 12.3914H13.1722C13.4046 12.3936 13.5904 12.5816 13.5926 12.8118C13.5904 13.0441 13.4024 13.23 13.1722 13.2321Z" fill="#33A6FF"/>
<circle cx="15" cy="3.47064" r="3" fill="#FFDF72"/>
</svg>
