<svg width="16" height="17" viewBox="0 0 16 17" fill="none" xmlns="http://www.w3.org/2000/svg">
<path fill-rule="evenodd" clip-rule="evenodd" d="M14.4034 7.68202C14.5215 7.68202 14.6316 7.73606 14.7036 7.82812L14.6936 7.83012C14.8217 7.99424 14.7917 8.2324 14.6276 8.36049C13.6729 9.10502 13.1345 10.3019 13.0765 11.8209C13.0625 12.1732 12.8783 12.2652 12.7242 12.2793H12.7042C12.5201 12.2793 12.356 12.1492 12.3159 11.967C11.5694 8.66271 7.81679 7.85014 6.51387 7.66801C6.43381 9.081 6.5519 13.1739 10.4987 13.7823C10.6868 13.8103 10.8249 13.9704 10.8269 14.1606C10.8229 14.4963 10.5336 14.5347 10.2777 14.5687L10.2765 14.5689C8.45724 14.807 7.30042 15.1753 6.8361 15.6616C6.76605 15.7357 6.66598 15.7797 6.5619 15.7797C6.46584 15.7797 6.37177 15.7437 6.30172 15.6756C6.14961 15.5335 6.14361 15.2914 6.28771 15.1413C6.73002 14.6749 7.57061 14.3087 8.78747 14.0485C5.20095 12.3193 5.78936 7.24971 5.79737 7.19768C5.82138 7.01155 5.9835 6.86945 6.17363 6.86945H6.19765C6.198 6.86948 6.1986 6.86952 6.19943 6.86959C6.31203 6.87858 10.7738 7.23496 12.5181 10.3719C12.7623 9.34519 13.3427 8.42654 14.1693 7.76207C14.2373 7.71004 14.3194 7.68202 14.4034 7.68202ZM5.53524 11.7989C5.57327 11.7889 5.6093 11.7829 5.64732 11.7829L5.64532 11.7809C5.81344 11.7809 5.95754 11.887 6.00758 12.0471C6.0376 12.1432 6.02759 12.2452 5.98156 12.3353C5.93552 12.4254 5.85547 12.4914 5.7594 12.5214C4.55455 12.8937 4.4725 13.2259 4.46849 13.29C4.45048 13.5522 4.99686 13.9484 5.39715 14.1366C5.48921 14.1806 5.55926 14.2567 5.59328 14.3507C5.62931 14.4468 5.6233 14.5489 5.58128 14.6409C5.52123 14.773 5.38514 14.8591 5.23903 14.8591C5.183 14.8591 5.12896 14.8471 5.07892 14.8231C4.93282 14.755 3.65392 14.1366 3.71396 13.2399C3.75399 12.6375 4.35041 12.1652 5.53524 11.7989Z" fill="#33A6FF"/>
<path fill-rule="evenodd" clip-rule="evenodd" d="M7.82789 4.60583C7.8261 4.55612 7.8252 4.50619 7.8252 4.45604C7.8252 3.53426 8.13032 2.68375 8.64507 2H2.59704C1.73843 2 1.04395 2.69449 1.04395 3.55309V10.7962C1.04395 11.6528 1.73843 12.3493 2.59704 12.3493H3.2495V11.5827H2.62306L2.62105 11.5807C2.16273 11.5807 1.79047 11.2145 1.79047 10.7642V5.42241C1.79047 4.97209 2.16273 4.60583 2.62105 4.60583H7.82789ZM6.39171 3.29491C6.39171 3.03473 6.18156 2.82458 5.92138 2.82458C5.66119 2.82458 5.45104 3.03473 5.45104 3.29491C5.45104 3.55509 5.66119 3.76524 5.92138 3.76524C6.18156 3.76524 6.39171 3.55509 6.39171 3.29491ZM4.8206 3.29491C4.8206 3.03473 4.61045 2.82458 4.35027 2.82458C4.09009 2.82458 3.87994 3.03473 3.87994 3.29491C3.87994 3.55509 4.09009 3.76524 4.35027 3.76524C4.61045 3.76524 4.8206 3.55509 4.8206 3.29491ZM3.2495 3.29491C3.2495 3.03473 3.03935 2.82458 2.77917 2.82458C2.51898 2.82458 2.30883 3.03473 2.30883 3.29491C2.30883 3.55509 2.51898 3.76524 2.77917 3.76524C3.03935 3.76524 3.2495 3.55509 3.2495 3.29491Z" fill="white"/>
<circle cx="13" cy="3.54349" r="3" fill="#FFDF72"/>
</svg>
