<svg width="17" height="17" viewBox="0 0 17 17" fill="none" xmlns="http://www.w3.org/2000/svg">
<path fill-rule="evenodd" clip-rule="evenodd" d="M14.4728 7.68202C14.5908 7.68202 14.7009 7.73606 14.773 7.82812L14.763 7.83012C14.891 7.99424 14.861 8.2324 14.6969 8.36049C13.7422 9.10502 13.2039 10.3019 13.1458 11.8209C13.1318 12.1732 12.9477 12.2652 12.7936 12.2793H12.7736C12.5894 12.2793 12.4253 12.1492 12.3853 11.967C11.6388 8.66271 7.88612 7.85014 6.58321 7.66801C6.50315 9.081 6.62123 13.1739 10.568 13.7823C10.7561 13.8103 10.8942 13.9704 10.8962 14.1606C10.8922 14.4963 10.6029 14.5347 10.347 14.5687L10.3459 14.5689C8.52657 14.807 7.36976 15.1753 6.90543 15.6616C6.83538 15.7357 6.73531 15.7797 6.63124 15.7797C6.53517 15.7797 6.44111 15.7437 6.37106 15.6756C6.21895 15.5335 6.21295 15.2914 6.35705 15.1413C6.79936 14.6749 7.63995 14.3087 8.8568 14.0485C5.27028 12.3193 5.8587 7.24971 5.8667 7.19768C5.89072 7.01155 6.05283 6.86945 6.24297 6.86945H6.26698C6.26734 6.86948 6.26793 6.86952 6.26877 6.86959C6.38136 6.87858 10.8431 7.23496 12.5874 10.3719C12.8316 9.34519 13.412 8.42654 14.2386 7.76207C14.3066 7.71004 14.3887 7.68202 14.4728 7.68202ZM5.60458 11.7989C5.64261 11.7889 5.67863 11.7829 5.71666 11.7829L5.71466 11.7809C5.88277 11.7809 6.02688 11.887 6.07691 12.0471C6.10693 12.1432 6.09693 12.2452 6.05089 12.3353C6.00486 12.4254 5.9248 12.4914 5.82874 12.5214C4.62389 12.8937 4.54183 13.2259 4.53783 13.29C4.51982 13.5522 5.0662 13.9484 5.46648 14.1366C5.55855 14.1806 5.6286 14.2567 5.66262 14.3507C5.69864 14.4468 5.69264 14.5489 5.65061 14.6409C5.59057 14.773 5.45447 14.8591 5.30837 14.8591C5.25233 14.8591 5.19829 14.8471 5.14826 14.8231C5.00216 14.755 3.72326 14.1366 3.7833 13.2399C3.82333 12.6375 4.41975 12.1652 5.60458 11.7989Z" fill="#33A6FF"/>
<path fill-rule="evenodd" clip-rule="evenodd" d="M7.89722 4.60583C7.89543 4.55612 7.89453 4.50619 7.89453 4.45604C7.89453 3.53426 8.19965 2.68375 8.71441 2H2.66637C1.80777 2 1.11328 2.69449 1.11328 3.55309V10.7962C1.11328 11.6528 1.80777 12.3493 2.66637 12.3493H3.31883V11.5827H2.69239L2.69039 11.5807C2.23207 11.5807 1.85981 11.2145 1.85981 10.7642V5.42241C1.85981 4.97209 2.23207 4.60583 2.69039 4.60583H7.89722ZM6.46104 3.29491C6.46104 3.03473 6.25089 2.82458 5.99071 2.82458C5.73053 2.82458 5.52038 3.03473 5.52038 3.29491C5.52038 3.55509 5.73053 3.76524 5.99071 3.76524C6.25089 3.76524 6.46104 3.55509 6.46104 3.29491ZM4.88994 3.29491C4.88994 3.03473 4.67979 2.82458 4.41961 2.82458C4.15942 2.82458 3.94928 3.03473 3.94928 3.29491C3.94928 3.55509 4.15942 3.76524 4.41961 3.76524C4.67979 3.76524 4.88994 3.55509 4.88994 3.29491ZM3.31883 3.29491C3.31883 3.03473 3.10868 2.82458 2.8485 2.82458C2.58832 2.82458 2.37817 3.03473 2.37817 3.29491C2.37817 3.55509 2.58832 3.76524 2.8485 3.76524C3.10868 3.76524 3.31883 3.55509 3.31883 3.29491Z" fill="white"/>
<circle cx="13.0693" cy="3.54349" r="3" fill="#97DD40"/>
</svg>
