<svg xmlns="http://www.w3.org/2000/svg" xmlns:xlink="http://www.w3.org/1999/xlink" width="16" height="16" viewBox="0 0 16 16">
  <defs>
    <clipPath id="clip-sap_fiori_error">
      <rect width="16" height="16"/>
    </clipPath>
  </defs>
  <g id="sap_fiori_error" clip-path="url(#clip-sap_fiori_error)">
    <g id="cloud_icon" transform="translate(-226 -221.55)">
      <rect id="Rectangle_521" data-name="Rectangle 521" width="16" height="16" transform="translate(226 221.55)" fill="none"/>
    </g>
    <g id="Group_3938" data-name="Group 3938" transform="translate(-11 1)">
      <g id="Group_3937" data-name="Group 3937" transform="translate(173.14 146.418)">
        <g id="Path_1604" data-name="Path 1604">
          <g id="Group_3911" data-name="Group 3911">
            <path id="Path_1996" data-name="Path 1996" d="M-160.062-146.217" fill="#fff"/>
          </g>
          <g id="Group_3912" data-name="Group 3912">
            <path id="Path_1997" data-name="Path 1997" d="M-160.084-146.217" fill="#4b4b4b"/>
          </g>
        </g>
        <path id="Path_1574" data-name="Path 1574" d="M-146.594-140.016l-2.012-3.483-2.01-3.483a.282.282,0,0,0-.383-.1.274.274,0,0,0-.1.1l-2.01,3.483-2.011,3.483a.277.277,0,0,0,.1.378h0a.253.253,0,0,0,.139.038h8.045a.278.278,0,0,0,.278-.277.287.287,0,0,0-.037-.14Zm-3.816-.774a.447.447,0,0,1-.447.447h0a.448.448,0,0,1-.446-.447v-.2a.445.445,0,0,1,.444-.446h0a.449.449,0,0,1,.447.446Zm0-1.533a.447.447,0,0,1-.447.447h0a.448.448,0,0,1-.446-.447v-2.627a.447.447,0,0,1,.445-.447h0a.449.449,0,0,1,.447.447h0Z" fill="#ffaf00"/>
        <g id="Path_1607" data-name="Path 1607">
          <path id="Path_2001" data-name="Path 2001" d="M-157.7-132.708a.5.5,0,0,1-.21-.047c-.266-.123-1.592-.791-1.524-1.8.069-1.029,1.544-1.485,2.029-1.635a.5.5,0,0,1,.625.33.5.5,0,0,1-.33.625c-1.288.4-1.326.743-1.326.747-.015.205.507.617.947.823a.5.5,0,0,1,.244.663A.5.5,0,0,1-157.7-132.708Z" fill="#008acf"/>
        </g>
        <g id="Group_3936" data-name="Group 3936">
          <path id="Path_2063" data-name="Path 2063" d="M-152-134.049c-4.116-.637-4.29-4.916-4.224-6.4.062.009.135.022.206.034.016-.034.016-.071.035-.1l.476-.825a9.955,9.955,0,0,0-1.146-.163.5.5,0,0,0-.528.436c-.008.062-.623,5.373,3.045,7.362a5.128,5.128,0,0,0-2.49,1.147h0a.5.5,0,0,0,.017.707.5.5,0,0,0,.345.138.5.5,0,0,0,.365-.154c.486-.51,1.716-.9,3.656-1.151.267-.035.674-.088.674-.528A.508.508,0,0,0-152-134.049Z" fill="#008acf"/>
          <path id="Path_2064" data-name="Path 2064" d="M-149.558-138.6a6.253,6.253,0,0,0-.3.741,5.839,5.839,0,0,0-.532-.741h-1.424a4.916,4.916,0,0,1,1.667,2.7.5.5,0,0,0,.542.387.5.5,0,0,0,.446-.494,5.108,5.108,0,0,1,.761-2.6Z" fill="#008acf"/>
        </g>
        <path id="Path_2065" data-name="Path 2065" d="M-159.194-137.64h-1.529v-7.588h7.418l.577-1h-8.295a.7.7,0,0,0-.7.7v8.388a.5.5,0,0,0,.5.5h2.029a.5.5,0,0,0,.5-.5A.5.5,0,0,0-159.194-137.64Z" fill="#515f68"/>
      </g>
      <rect id="Rectangle_577" data-name="Rectangle 577" width="16" height="16" transform="translate(11 -1)" fill="none"/>
    </g>
  </g>
</svg>
