<svg width="16" height="16" viewBox="0 0 16 16" fill="none" xmlns="http://www.w3.org/2000/svg">
<path fill-rule="evenodd" clip-rule="evenodd" d="M9.31662 1.3561L8.0154 0.568939L5.33887 2.16973L8.0154 3.73784L8.03698 3.72505C8.1717 2.78665 8.63945 1.9558 9.31662 1.3561ZM8.03383 4.82447L8.0154 4.81354L5.33887 6.38632V9.58323L8.0154 11.1537L10.6616 9.58323V7.99508C9.27682 7.52941 8.23834 6.30998 8.03383 4.82447ZM14.3553 7.33963C13.6854 7.87689 12.8349 8.19827 11.9094 8.19827C11.8422 8.19827 11.7754 8.19658 11.7091 8.19323V9.06059L14.3553 7.46213V7.33963ZM6.93926 4.26289L4.29073 5.89168V9.06292L1.64453 7.46213V4.29323L4.29073 2.69244L6.93926 4.26289ZM4.29073 13.3075L1.64453 11.7091V8.54019L4.29073 10.1083V13.3075ZM5.33887 13.8303V10.6614L8.0154 12.2598L10.6616 10.659V13.8303L8.0154 15.431L5.33887 13.8303ZM11.709 13.3099L14.3552 11.7114V8.54019L11.709 10.1106V13.3099Z" fill="#33A6FF"/>
<circle cx="12.8491" cy="3.34682" r="2.97316" fill="#FFDF72"/>
</svg>
