<svg width="17" height="16" viewBox="0 0 17 16" fill="none" xmlns="http://www.w3.org/2000/svg">
<path fill-rule="evenodd" clip-rule="evenodd" d="M9.38596 1.3561L8.08474 0.568939L5.4082 2.16973L8.08474 3.73784L8.10631 3.72505C8.24104 2.78665 8.70879 1.9558 9.38596 1.3561ZM8.10316 4.82447L8.08474 4.81354L5.4082 6.38632V9.58323L8.08474 11.1537L10.7309 9.58323V7.99508C9.34616 7.52941 8.30767 6.30998 8.10316 4.82447ZM14.4246 7.33963C13.7547 7.87689 12.9042 8.19827 11.9787 8.19827C11.9115 8.19827 11.8448 8.19658 11.7784 8.19323V9.06059L14.4246 7.46213V7.33963ZM7.0086 4.26289L4.36006 5.89168V9.06292L1.71387 7.46213V4.29323L4.36006 2.69244L7.0086 4.26289ZM4.36006 13.3075L1.71387 11.7091V8.54019L4.36006 10.1083V13.3075ZM5.4082 13.8303V10.6614L8.08474 12.2598L10.7309 10.659V13.8303L8.08474 15.431L5.4082 13.8303ZM11.7783 13.3099L14.4245 11.7114V8.54019L11.7783 10.1106V13.3099Z" fill="#33A6FF"/>
<circle cx="12.9185" cy="3.34682" r="2.97316" fill="#97DD40"/>
</svg>
