<svg width="17" height="17" viewBox="0 0 17 17" fill="none" xmlns="http://www.w3.org/2000/svg">
<path fill-rule="evenodd" clip-rule="evenodd" d="M12.6016 8.91652C12.3709 11.2125 10.4342 13.007 8.0774 13.0087C6.88896 13.0087 5.74777 12.5466 4.89713 11.717L6.04007 11.1429L4.59608 10.1942L3.15209 9.24556L3.05407 10.9696L2.95605 12.6936L3.85395 12.2421C5.9473 14.5717 9.53364 14.7625 11.8615 12.6691C13.0286 11.6198 13.7066 10.1363 13.74 8.57225C13.3867 8.74174 13.004 8.85974 12.6016 8.91652ZM8.30631 3.90307C8.22636 3.89885 8.14613 3.89673 8.06567 3.89673C5.55051 3.89673 3.51142 5.93757 3.51142 8.45273H2.39648C2.39648 6.82846 3.09135 5.28296 4.30605 4.20653C5.59075 3.06851 7.24673 2.61897 8.82296 2.83029C8.59938 3.15576 8.42376 3.51676 8.30631 3.90307Z" fill="white"/>
<path fill-rule="evenodd" clip-rule="evenodd" d="M8.16447 5.5029L7.15012 6.11082L8.18104 6.71642L8.44313 6.56087C8.30331 6.22905 8.20793 5.87391 8.16447 5.5029ZM8.61295 6.91325L8.58536 6.92995L8.64088 6.96357C8.63145 6.94687 8.62214 6.9301 8.61295 6.91325ZM9.60578 8.09779V8.76951L10.1302 8.45249C9.94559 8.3483 9.77025 8.22955 9.60578 8.09779ZM10.5062 8.63872L9.60753 9.17208V9.17383V10.4078L10.6279 9.78993V8.68862C10.587 8.67265 10.5465 8.65601 10.5062 8.63872ZM6.74405 7.54781L7.76622 6.91945V6.9177L6.74405 6.3121L5.72363 6.92995V8.15341L6.74405 8.77126V7.54781ZM6.74405 9.17383L5.72363 8.56823V9.78993L6.74405 10.4078V9.17383ZM9.20146 7.73684L8.18104 7.13124L7.15012 7.73684V8.97079L8.18104 9.57639L9.20146 8.97079V7.73684ZM9.20146 9.38561L8.18104 10.0035V10.0017L7.15012 9.38561V10.6108L8.18104 11.2287L9.20146 10.6091V9.38561Z" fill="#33A6FF"/>
<circle cx="12.9888" cy="4.10366" r="2.97316" fill="#97DD40"/>
</svg>
