<svg width="16" height="16" viewBox="0 0 16 16" fill="none" xmlns="http://www.w3.org/2000/svg">
<g clip-path="url(#clip0_205_479)">
<path d="M14.4783 7.18542C14.0615 6.7333 13.4779 6.47036 12.8655 6.45593H12.734L12.6827 6.2956C12.3171 5.17973 11.1179 4.57209 10.002 4.93763C9.94109 4.95687 9.88017 4.97932 9.82084 5.00657L9.65731 5.08032L9.5531 4.96329C8.49173 3.63097 6.68324 3.14999 5.10082 3.77847C4.66312 3.95323 4.25589 4.20334 3.90317 4.51918C3.55045 4.83342 3.26026 5.21019 3.04703 5.63025C2.82578 6.06153 2.69431 6.53289 2.65904 7.01547L2.6414 7.19023L2.49069 7.20626C2.0049 7.2768 1.55919 7.51569 1.23213 7.88124C0.897043 8.24197 0.712667 8.71654 0.715874 9.20874C0.707857 10.323 1.60409 11.2305 2.71836 11.2385H3.87752V10.4689H2.72477C2.3961 10.4705 2.08186 10.3342 1.86061 10.0921C1.62172 9.85967 1.48705 9.54062 1.48544 9.20714C1.48224 8.90252 1.59126 8.60752 1.79648 8.38146C1.99208 8.15379 2.26944 8.0095 2.56765 7.98064L3.36608 7.88605L3.43021 7.09724C3.46228 6.71245 3.5729 6.33729 3.75086 5.99739C3.92241 5.6575 4.15328 5.35128 4.43225 5.09155C4.70802 4.83823 5.02386 4.63622 5.37337 4.49673C5.73892 4.35244 6.12691 4.27869 6.51971 4.2835C6.98466 4.2819 7.4464 4.38771 7.86325 4.59293C8.28331 4.79655 8.65046 5.09155 8.94225 5.45389L9.41682 6.05351L10.1415 5.73766C10.3018 5.6575 10.4798 5.61261 10.6594 5.61261C10.9367 5.61582 11.2061 5.7056 11.4305 5.86913C11.6646 6.03427 11.8346 6.27476 11.9115 6.55052L12.1328 7.24474H12.8302C13.247 7.24474 13.6462 7.41468 13.9316 7.7161C14.2202 8.02072 14.3757 8.42635 14.3661 8.8432C14.3741 9.26806 14.2122 9.68011 13.9156 9.98633C13.6366 10.291 13.2422 10.4609 12.8302 10.4561H11.9885V11.2257H12.835C13.1428 11.2289 13.4458 11.1695 13.7296 11.0493C14.007 10.9274 14.2539 10.7527 14.4623 10.5346C14.6707 10.315 14.8375 10.0601 14.9561 9.78111C15.3345 8.89771 15.1469 7.87322 14.4767 7.18221L14.4735 7.18862H14.4751L14.4783 7.18542Z" fill="#33A6FF"/>
<path d="M5.11819 10.6966V10.2926H5.60719L5.68254 9.97352C5.74026 9.72341 5.83806 9.48773 5.97274 9.26969L6.14749 8.99072L5.80119 8.64441L6.1026 8.343L6.44891 8.6893L6.72788 8.51455C6.94592 8.37987 7.1816 8.28207 7.43331 8.22275L7.75236 8.1474V7.6584H8.17883V8.1474L8.49789 8.22275C8.748 8.28047 8.98368 8.37827 9.20172 8.51294L9.48069 8.6877L9.827 8.34139L10.1284 8.64281L9.7821 8.98912L9.95686 9.26808C10.0915 9.48613 10.1893 9.72181 10.2487 9.97192L10.324 10.291H10.813V10.695H11.3902V10.1002C11.3902 9.88695 11.217 9.71379 11.0038 9.71379H10.7793C10.7152 9.49094 10.627 9.2761 10.5132 9.07409L10.6703 8.91697C10.821 8.76626 10.821 8.52256 10.6703 8.37025L10.0996 7.79949C9.94884 7.64878 9.70354 7.64878 9.55284 7.79949L9.39572 7.95661C9.1937 7.84278 8.97887 7.7546 8.75601 7.69047V7.46601C8.75601 7.25277 8.58286 7.07962 8.36962 7.07962H7.56158C7.34834 7.07962 7.17519 7.25277 7.17519 7.46601V7.69047C6.95233 7.7546 6.73749 7.84278 6.53548 7.95661L6.37836 7.79949C6.22766 7.64718 5.98235 7.64718 5.83165 7.79949L5.26088 8.37025C5.11018 8.52096 5.11018 8.76626 5.26088 8.91697L5.418 9.07409C5.30417 9.2761 5.21599 9.49094 5.15186 9.71379H4.9274C4.71417 9.71379 4.54102 9.88695 4.54102 10.1002V10.695H5.11819V10.6966Z" fill="#33A6FF"/>
<path d="M8.52737 10.3486L7.43555 13.5872" stroke="white" stroke-width="0.49541" stroke-linecap="round" stroke-linejoin="round"/>
<path d="M9.37305 11.0573L9.9374 11.5783L10.5034 12.0978L9.9374 12.6189L9.37305 13.1399" stroke="white" stroke-width="0.49541" stroke-linecap="round" stroke-linejoin="round"/>
<path d="M6.45683 13.1399L5.89087 12.6189L5.32812 12.0978L5.89087 11.5783L6.45683 11.0573" stroke="white" stroke-width="0.49541" stroke-linecap="round" stroke-linejoin="round"/>
</g>
<circle cx="13" cy="3.23737" r="3" fill="#FFDF72"/>
<defs>
<clipPath id="clip0_205_479">
<rect width="14.4294" height="14.4294" fill="white" transform="translate(0.71582 1)"/>
</clipPath>
</defs>
</svg>
