<svg width="17" height="16" viewBox="0 0 17 16" fill="none" xmlns="http://www.w3.org/2000/svg">
<g clip-path="url(#clip0_194_980)">
<path d="M14.5477 7.18542C14.1308 6.7333 13.5472 6.47036 12.9348 6.45593H12.8033L12.752 6.2956C12.3865 5.17973 11.1872 4.57209 10.0713 4.93763C10.0104 4.95687 9.9495 4.97932 9.89018 5.00657L9.72665 5.08032L9.62243 4.96329C8.56107 3.63097 6.75258 3.14999 5.17015 3.77847C4.73246 3.95323 4.32523 4.20334 3.97251 4.51918C3.61979 4.83342 3.3296 5.21019 3.11636 5.63025C2.89511 6.06153 2.76364 6.53289 2.72837 7.01547L2.71074 7.19023L2.56003 7.20626C2.07424 7.2768 1.62853 7.51569 1.30146 7.88124C0.966379 8.24197 0.782003 8.71654 0.78521 9.20874C0.777193 10.323 1.67342 11.2305 2.78769 11.2385H3.94686V10.4689H2.79411C2.46544 10.4705 2.1512 10.3342 1.92994 10.0921C1.69106 9.85967 1.55638 9.54062 1.55478 9.20714C1.55157 8.90252 1.6606 8.60752 1.86581 8.38146C2.06141 8.15379 2.33878 8.0095 2.63699 7.98064L3.43541 7.88605L3.49955 7.09724C3.53161 6.71245 3.64224 6.33729 3.8202 5.99739C3.99175 5.6575 4.22262 5.35128 4.50159 5.09155C4.77735 4.83823 5.0932 4.63622 5.44271 4.49673C5.80825 4.35244 6.19625 4.27869 6.58905 4.2835C7.054 4.2819 7.51574 4.38771 7.93259 4.59293C8.35264 4.79655 8.71979 5.09155 9.01159 5.45389L9.48616 6.05351L10.2108 5.73766C10.3712 5.6575 10.5491 5.61261 10.7287 5.61261C11.0061 5.61582 11.2754 5.7056 11.4999 5.86913C11.7339 6.03427 11.9039 6.27476 11.9808 6.55052L12.2021 7.24474H12.8995C13.3164 7.24474 13.7156 7.41468 14.001 7.7161C14.2896 8.02072 14.4451 8.42635 14.4355 8.8432C14.4435 9.26806 14.2815 9.68011 13.9849 9.98633C13.706 10.291 13.3116 10.4609 12.8995 10.4561H12.0578V11.2257H12.9043C13.2122 11.2289 13.5152 11.1695 13.799 11.0493C14.0763 10.9274 14.3232 10.7527 14.5316 10.5346C14.7401 10.315 14.9068 10.0601 15.0255 9.78111C15.4038 8.89771 15.2162 7.87322 14.5461 7.18221L14.5429 7.18862H14.5445L14.5477 7.18542Z" fill="#33A6FF"/>
<path d="M5.18753 10.6966V10.2926H5.67653L5.75188 9.97352C5.8096 9.72341 5.9074 9.48773 6.04207 9.26969L6.21683 8.99072L5.87052 8.64441L6.17194 8.343L6.51824 8.6893L6.79721 8.51455C7.01526 8.37987 7.25094 8.28207 7.50265 8.22275L7.8217 8.1474V7.6584H8.24817V8.1474L8.56722 8.22275C8.81733 8.28047 9.05301 8.37827 9.27106 8.51294L9.55003 8.6877L9.89633 8.34139L10.1977 8.64281L9.85144 8.98912L10.0262 9.26808C10.1609 9.48613 10.2587 9.72181 10.318 9.97192L10.3933 10.291H10.8823V10.695H11.4595V10.1002C11.4595 9.88695 11.2864 9.71379 11.0731 9.71379H10.8487C10.7845 9.49094 10.6964 9.2761 10.5825 9.07409L10.7397 8.91697C10.8904 8.76626 10.8904 8.52256 10.7397 8.37025L10.1689 7.79949C10.0182 7.64878 9.77288 7.64878 9.62217 7.79949L9.46505 7.95661C9.26304 7.84278 9.0482 7.7546 8.82535 7.69047V7.46601C8.82535 7.25277 8.65219 7.07962 8.43896 7.07962H7.63091C7.41768 7.07962 7.24452 7.25277 7.24452 7.46601V7.69047C7.02167 7.7546 6.80683 7.84278 6.60482 7.95661L6.4477 7.79949C6.29699 7.64718 6.05169 7.64718 5.90098 7.79949L5.33022 8.37025C5.17951 8.52096 5.17951 8.76626 5.33022 8.91697L5.48734 9.07409C5.37351 9.2761 5.28533 9.49094 5.2212 9.71379H4.99674C4.7835 9.71379 4.61035 9.88695 4.61035 10.1002V10.695H5.18753V10.6966Z" fill="#33A6FF"/>
<path d="M8.59671 10.3486L7.50488 13.5872" stroke="white" stroke-width="0.49541" stroke-linecap="round" stroke-linejoin="round"/>
<path d="M9.44238 11.0573L10.0067 11.5783L10.5727 12.0978L10.0067 12.6189L9.44238 13.1399" stroke="white" stroke-width="0.49541" stroke-linecap="round" stroke-linejoin="round"/>
<path d="M6.52616 13.1399L5.96021 12.6189L5.39746 12.0978L5.96021 11.5783L6.52616 11.0573" stroke="white" stroke-width="0.49541" stroke-linecap="round" stroke-linejoin="round"/>
</g>
<circle cx="13.0693" cy="3.23737" r="3" fill="#97DD40"/>
<defs>
<clipPath id="clip0_194_980">
<rect width="14.4294" height="14.4294" fill="white" transform="translate(0.785156 1)"/>
</clipPath>
</defs>
</svg>
