<svg xmlns="http://www.w3.org/2000/svg" xmlns:xlink="http://www.w3.org/1999/xlink" width="16" height="16" viewBox="0 0 16 16">
  <defs>
    <clipPath id="clip-sap_sme_error">
      <rect width="16" height="16"/>
    </clipPath>
  </defs>
  <g id="sap_sme_error" clip-path="url(#clip-sap_sme_error)">
    <g id="Group_3898" data-name="Group 3898" transform="translate(37.77 38.468)">
      <path id="Path_1974" data-name="Path 1974" d="M-27.625-27.525l-.178-.3.242-.242.236-.283-.606-.6-.3.272-.242.212-.3-.151a.682.682,0,0,1-.151-.091c-.061-.03-.121-.03-.151-.061l-.3-.121v-.7h-.865v.7l-.3.121c-.061.03-.121.03-.183.061l-.182.091-.272.151-.243-.212-.272-.272-.653.645.273.272.212.242-.151.272-.091.182c-.03.061-.03.121-.061.182l-.121.3h-.683v.878h.7l.121.3c.03.061.03.121.061.151a.646.646,0,0,0,.091.151l.151.3-.225.25-.273.272.425.424-.272.333-.455-.454a.386.386,0,0,1-.121-.3.349.349,0,0,1,.121-.3l.272-.272-.091-.182a1.471,1.471,0,0,1-.091-.212h-.4a.349.349,0,0,1-.3-.121.387.387,0,0,1-.122-.3v-.938a.353.353,0,0,1,.122-.3.388.388,0,0,1,.3-.121h.4c.03-.061.03-.151.091-.212l.091-.182-.272-.272a.431.431,0,0,1-.121-.3.386.386,0,0,1,.121-.3l.637-.636a.392.392,0,0,1,.3-.121.349.349,0,0,1,.3.121l.273.272.182-.091a1.471,1.471,0,0,1,.212-.091v-.408a.353.353,0,0,1,.122-.3.388.388,0,0,1,.3-.121h.88a.349.349,0,0,1,.3.121.387.387,0,0,1,.122.3v.394c.061.03.151.03.212.091l.182.091.273-.272a.441.441,0,0,1,.606,0l.637.636a.437.437,0,0,1,0,.6l-.272.272.035.084m-2.329,1.685a.324.324,0,0,1,.061.363l-.88,1.12.88,1.12a.329.329,0,0,1,.03.151.229.229,0,0,1-.061.151.182.182,0,0,1-.183.091.259.259,0,0,1-.182-.091l-1.121-1.422,1.122-1.423a.185.185,0,0,1,.182-.091A.285.285,0,0,1-29.673-25.939Zm.634-.962a.731.731,0,0,0-.3-.3.785.785,0,0,0-.455-.121.806.806,0,0,0-.576.212.906.906,0,0,0-.3.515l-.4.481a1.083,1.083,0,0,1-.061-.333,1.21,1.21,0,0,1,.394-.938,1.267,1.267,0,0,1,.94-.394,1.432,1.432,0,0,1,.789.242,1.5,1.5,0,0,1,.485.636Zm1.2.847c.061-.121.121-.182.243-.182a.263.263,0,0,1,.182.091.521.521,0,0,1,.061.151v.091l-1,3.027a.229.229,0,0,1-.242.182.26.26,0,0,1-.183-.091.222.222,0,0,1-.061-.182v-.091l.973-2.913Zm2.654,1.589-1.122,1.423a.277.277,0,0,1-.212.091.231.231,0,0,1-.152-.061.183.183,0,0,1-.091-.182.229.229,0,0,1,.061-.151l.88-1.12-.88-1.12a.229.229,0,0,1-.061-.151.225.225,0,0,1,.2-.242h.037a.33.33,0,0,1,.212.091Z" transform="translate(0 -0.05)" fill="#009bdd" stroke="#009bdd" stroke-miterlimit="10" stroke-width="0.25"/>
      <path id="Path_1574" data-name="Path 1574" d="M-21.806-31.364l-2.016-3.483-2.013-3.483a.282.282,0,0,0-.384-.1.267.267,0,0,0-.1.1l-2.014,3.483-2.015,3.483a.275.275,0,0,0,.1.377h0a.275.275,0,0,0,.14.038h8.06a.278.278,0,0,0,.278-.277.287.287,0,0,0-.037-.14Zm-3.823-.774a.447.447,0,0,1-.448.447h0a.448.448,0,0,1-.447-.447v-.2a.446.446,0,0,1,.445-.446h0a.448.448,0,0,1,.448.446Zm0-1.533a.447.447,0,0,1-.448.447h0a.448.448,0,0,1-.447-.447V-36.3a.447.447,0,0,1,.446-.447h0a.448.448,0,0,1,.448.447h0Z" fill="#ffaf00"/>
      <g id="Group_3886" data-name="Group 3886" transform="translate(-37.786 -35.039)">
        <path id="Path_1975" data-name="Path 1975" d="M-30.1-33.793l.46-.8a3.882,3.882,0,0,0-1.909-.429,3.878,3.878,0,0,0-1.54.3,4.34,4.34,0,0,0-1.293.787,4.379,4.379,0,0,0-.924,1.181,4.121,4.121,0,0,0-.431,1.483v.184l-.154.03A2.18,2.18,0,0,0-37.767-28.6a2.184,2.184,0,0,0,.612,1.246,2.215,2.215,0,0,0,1.54.636h1.263v-.817h-1.31a1.243,1.243,0,0,1-.923-.394,1.306,1.306,0,0,1-.03-1.85,1.314,1.314,0,0,1,.8-.39l.863-.091.056-.847a3.075,3.075,0,0,1,.338-1.181,3.259,3.259,0,0,1,.74-.969,3.38,3.38,0,0,1,2.248-.878,3.378,3.378,0,0,1,1.448.333C-30.114-33.8-30.108-33.8-30.1-33.793Z" transform="translate(37.786 35.019)" fill="#4f6374"/>
        <path id="Path_1976" data-name="Path 1976" d="M-23.116-29.948a1.648,1.648,0,0,1,.125.637v.052a1.722,1.722,0,0,1-1.663,1.725h-.924v.817h.924a2.726,2.726,0,0,0,.986-.182,2.08,2.08,0,0,0,.8-.545,2.872,2.872,0,0,0,.524-.817,2.666,2.666,0,0,0,.061-1.687Z" transform="translate(37.786 35.019)" fill="#4f6374"/>
      </g>
    </g>
  </g>
</svg>
