<svg xmlns="http://www.w3.org/2000/svg" xmlns:xlink="http://www.w3.org/1999/xlink" width="30" height="30" viewBox="0 0 30 30">
  <defs>
    <clipPath id="clip-path">
      <rect id="Rectangle_484" data-name="Rectangle 484" width="30" height="30" fill="#fff"/>
    </clipPath>
  </defs>
  <g id="task_explorer_light" clip-path="url(#clip-path)">
    <g id="Layer_2" data-name="Layer 2" transform="translate(3.189 3.223)">
      <g id="Layer_1" data-name="Layer 1">
        <path id="Path_5" data-name="Path 5" d="M0,47.13l.09-1.051.1-1.2.026-.31L.5,44.414l9.888-5.236.3-.155.285.18.242.155.85.538.854.543-.9.465L.93,46.645Zm.293-3.811.091-1.06L.5,40.926l.028-.319.284-.147,6.384-3.3.3-.155.282.178,1.062.665.853.54-.893.465L1.24,42.825Z" transform="translate(0 -31.264)" fill="#fff"/>
        <path id="Path_6" data-name="Path 6" d="M68.6,63.282h0l.93-.493,11.034-5.836.895-.473-.04,1.011L81.375,58.5l-.012.285-.016.336-.3.155-9.932,5.144-.282.146-.274-.155-1.045-.6-.915-.526Zm3.3,1.93h0l.95-.493,7.574-3.95.893-.465-.043,1.008-.051,1.253-.014.333-.3.155-6.357,3.361-.282.155-.278-.155-1.163-.664-.93-.529Z" transform="translate(-57.964 -47.723)" fill="#fff"/>
        <path id="Path_7" data-name="Path 7" d="M1.09,92.95l.93-.488,1.071-.557.282-.146.276.155,9.718,5.543.293.167v2.636l-.874-.509L2.006,93.481l-.912-.53Zm3.375-1.8.952-.49,1.188-.62.284-.155.278.155,6.215,3.615.288.167v2.6l-.874-.5L5.386,91.685Z" transform="translate(-0.921 -75.954)" fill="#fff"/>
        <path id="Path_8" data-name="Path 8" d="M70.4,0h0l.887.572L81.774,7.34l.85.547-.9.465-.9.456-.256.13-.3.155-.281-.184L70.64,2.75l-.265-.174V2.259l.012-1.2Zm-.068,3.822h0l.89.581,7.153,4.671.843.552-.9.451-1.121.567-.3.155-.281-.181-6.047-3.9-.27-.174V6.226l.011-1.34.009-1.064Z" transform="translate(-59.401)" fill="#fff"/>
      </g>
    </g>
  </g>
</svg>
