<svg width="16" height="16" viewBox="0 0 16 16" fill="none" xmlns="http://www.w3.org/2000/svg">
<path d="M0.587891 10.2369L0.644582 9.57391L0.709092 8.81708L0.725709 8.62151L0.902624 8.52373L7.1367 5.22163L7.32437 5.12385L7.50421 5.23728L7.65669 5.33506L8.19233 5.67436L8.73089 6.0166L8.16496 6.30995L1.17435 9.93082L0.587891 10.2369V10.2369ZM0.772626 7.83339L0.830294 7.16456L0.903602 6.32364L0.921196 6.1222L1.10007 6.02931L5.12514 3.94558L5.31183 3.84779L5.48972 3.96024L6.15926 4.37973L6.69685 4.72001L6.13385 5.01336L1.36984 7.52147L0.772626 7.83339Z" fill="#053B70"/>
<path d="M7.29297 10.0419L7.87943 9.73096L14.8358 6.05045L15.3998 5.75221L15.3744 6.38975L15.347 7.02436L15.3392 7.20428L15.3294 7.41646L15.1408 7.51425L8.87934 10.7587L8.70145 10.8506L8.52844 10.7528L7.86965 10.3744L7.29297 10.0429V10.0419ZM9.37197 11.2593L9.97114 10.9484L14.7459 8.45686L15.3089 8.16352L15.2815 8.7991L15.2493 9.58918L15.2405 9.79941L15.0538 9.89719L11.0463 12.0171L10.8684 12.1149L10.6935 12.0171L9.96039 11.5986L9.37393 11.2652L9.37197 11.2593Z" fill="#053B70"/>
<path d="M0.695312 10.9499L1.28177 10.6418L1.95718 10.2908L2.13507 10.1989L2.30906 10.2967L8.43561 13.7924L8.62035 13.898V15.5603L8.06907 15.2396L1.27298 11.2843L0.698245 10.9499H0.695312ZM2.82319 9.81754L3.42333 9.50855L4.17204 9.11742L4.35091 9.01964L4.52588 9.11742L8.44441 11.3977L8.62621 11.5033V11.7135V12.5065V13.1421L8.07494 12.8253L3.40378 10.152L2.82319 9.81754Z" fill="#0A6ED1"/>
<path d="M7.52252 0.229813L8.08161 0.590629L14.6939 4.85882L15.2296 5.20399L14.6617 5.49733L14.0958 5.78481L13.9345 5.86695L13.7449 5.96473L13.5679 5.84837L7.67402 1.96447L7.50688 1.85495V1.6545L7.5147 0.895709L7.52252 0.229813ZM7.47951 2.64014L8.04056 3.00682L12.5504 5.953L13.0822 6.3011L12.5133 6.58565L11.8066 6.94353L11.6189 7.04131L11.442 6.92691L7.63003 4.46769L7.45996 4.35817V4.15674L7.4668 3.3119L7.47267 2.64112L7.47951 2.64014Z" fill="#0A6ED1"/>
</svg>
