<svg width="17" height="17" viewBox="0 0 17 17" fill="none" xmlns="http://www.w3.org/2000/svg">
<path d="M14.9939 5.99705C15.0668 6.06996 15.1032 6.16111 15.1032 6.27048C15.1032 6.37074 15.0759 6.46189 15.0212 6.54392L8.51338 15.6494C8.43135 15.7588 8.31286 15.8135 8.15791 15.8135C8.00297 15.8135 7.88448 15.7588 7.80244 15.6494L1.32198 6.51658C1.24906 6.43455 1.21716 6.3434 1.22627 6.24314C1.23539 6.14288 1.2764 6.05173 1.34932 5.9697L4.84932 2.11423C4.93135 2.00486 5.03161 1.95017 5.1501 1.95017H11.1657C11.3024 1.95017 11.4118 2.00486 11.4939 2.11423L14.9939 5.99705ZM14.0915 6.29783L10.9743 2.82517H5.36885L2.22432 6.29783L8.15791 14.6377L14.0915 6.29783ZM12.1228 6.43455C11.7582 6.37074 11.4528 6.26137 11.2067 6.10642C10.9606 5.94236 10.7556 5.76007 10.5915 5.55955C10.4366 5.34991 10.3181 5.13572 10.236 4.91697C10.154 4.69822 10.0902 4.50225 10.0446 4.32908C10.0446 4.30173 10.031 4.28806 10.0036 4.28806C9.97627 4.28806 9.95349 4.31085 9.93526 4.35642C9.87145 4.71189 9.76208 5.01267 9.60713 5.25877C9.45218 5.49574 9.27445 5.69627 9.07393 5.86033C8.87341 6.01528 8.66377 6.13377 8.44502 6.2158C8.23539 6.29783 8.03942 6.36163 7.85713 6.4072C7.81156 6.42543 7.78877 6.44822 7.78877 6.47556C7.78877 6.50291 7.81156 6.51658 7.85713 6.51658C8.22172 6.58038 8.52705 6.69431 8.77315 6.85837C9.01924 7.01332 9.21976 7.19561 9.37471 7.40525C9.52966 7.60577 9.64815 7.81541 9.73018 8.03416C9.81221 8.24379 9.87145 8.43975 9.90791 8.62205C9.92614 8.64939 9.94893 8.66306 9.97627 8.66306C10.0036 8.66306 10.0264 8.64939 10.0446 8.62205C10.0993 8.25746 10.2041 7.95212 10.3591 7.70603C10.514 7.45994 10.6918 7.25942 10.8923 7.10447C11.1019 6.94041 11.3161 6.81736 11.5349 6.73533C11.7536 6.64418 11.9496 6.58038 12.1228 6.54392C12.1683 6.54392 12.1866 6.52569 12.1774 6.48923C12.1683 6.45278 12.1501 6.43455 12.1228 6.43455Z" fill="#9A9A9A"/>
</svg>
