<svg width="17" height="17" viewBox="0 0 17 17" fill="none" xmlns="http://www.w3.org/2000/svg">
<path d="M14.9939 5.782C15.0668 5.85492 15.1032 5.94606 15.1032 6.05544C15.1032 6.1557 15.0759 6.24685 15.0212 6.32888L8.51338 15.4343C8.42224 15.5619 8.30375 15.6258 8.15791 15.6258C8.02119 15.6258 7.9027 15.5619 7.80244 15.4343L1.32198 6.30153C1.24906 6.2195 1.21716 6.12836 1.22627 6.0281C1.23539 5.92783 1.2764 5.83669 1.34932 5.75466L4.82198 1.89919C4.93135 1.78981 5.04073 1.73513 5.1501 1.73513H11.1657C11.3024 1.73513 11.4118 1.78981 11.4939 1.89919L14.9939 5.782ZM12.1228 6.32888C12.1501 6.32888 12.1638 6.3152 12.1638 6.28786C12.1638 6.26052 12.1501 6.23773 12.1228 6.2195C11.7582 6.1557 11.4528 6.04632 11.2067 5.89138C10.9606 5.73643 10.7556 5.55869 10.5915 5.35817C10.4366 5.15765 10.3181 4.94802 10.236 4.72927C10.154 4.51052 10.0902 4.31455 10.0446 4.14138C10.0446 4.0958 10.0264 4.07302 9.98994 4.07302C9.95349 4.07302 9.93526 4.0958 9.93526 4.14138C9.87145 4.50596 9.76208 4.8113 9.60713 5.05739C9.45218 5.30349 9.27445 5.50401 9.07393 5.65895C8.87341 5.8139 8.66377 5.93239 8.44502 6.01442C8.23539 6.09645 8.03942 6.1557 7.85713 6.19216C7.81156 6.21039 7.78877 6.23317 7.78877 6.26052C7.78877 6.28786 7.81156 6.31065 7.85713 6.32888C8.22172 6.38356 8.52705 6.48838 8.77315 6.64333C9.01924 6.79828 9.21976 6.98057 9.37471 7.1902C9.52966 7.39073 9.64815 7.60036 9.73018 7.81911C9.81221 8.02875 9.87145 8.22471 9.90791 8.407C9.92614 8.45257 9.94893 8.4708 9.97627 8.46169C10.0036 8.45257 10.0264 8.43435 10.0446 8.407C10.0993 8.04242 10.2041 7.73708 10.3591 7.49099C10.514 7.24489 10.6918 7.04437 10.8923 6.88942C11.1019 6.72536 11.3161 6.60231 11.5349 6.52028C11.7536 6.42914 11.9496 6.36533 12.1228 6.32888Z" fill="#9A9A9A"/>
</svg>
