<svg width="17" height="16" viewBox="0 0 17 16" fill="none" xmlns="http://www.w3.org/2000/svg">
<g clip-path="url(#clip0_194_1158)">
<path d="M13.1721 3.1134H2.96595C2.15498 3.1134 1.49902 3.76936 1.49902 4.58033V11.4216C1.49902 12.2307 2.15498 12.8866 2.96406 12.8866H13.4745C14.1173 12.8866 14.639 12.3649 14.639 11.7222V4.58033C14.639 3.76936 13.983 3.1134 13.1721 3.1134V3.1134ZM6.10586 3.89224C6.35161 3.89224 6.5501 4.09262 6.5501 4.33647C6.5501 4.58033 6.35161 4.78071 6.10586 4.78071C5.86011 4.78071 5.66162 4.58222 5.66162 4.33647C5.66162 4.09073 5.86011 3.89224 6.10586 3.89224V3.89224ZM4.62192 3.89224C4.86578 3.89224 5.06427 4.09262 5.06427 4.33647C5.06427 4.58033 4.86578 4.78071 4.62192 4.78071C4.37806 4.78071 4.17768 4.58222 4.17768 4.33647C4.17768 4.09073 4.37617 3.89224 4.62192 3.89224V3.89224ZM3.13798 3.89224C3.38183 3.89224 3.58032 4.09262 3.58032 4.33647C3.58032 4.58033 3.38183 4.78071 3.13798 4.78071C2.89412 4.78071 2.69374 4.58222 2.69374 4.33647C2.69374 4.09073 2.89223 3.89224 3.13798 3.89224V3.89224ZM13.9339 11.293C13.9339 11.7751 13.5445 12.1645 13.0624 12.1645H2.99053C2.55763 12.1645 2.20602 11.8186 2.20602 11.3932V6.34594C2.20602 5.92061 2.55763 5.57467 2.99053 5.57467H13.1494C13.5823 5.57467 13.9339 5.92061 13.9339 6.34594V11.293V11.293Z" fill="#183C6B"/>
<path d="M8.37688 7.76182H3.8362C3.66229 7.76182 3.52051 7.62004 3.52051 7.44612C3.52051 7.27221 3.66229 7.13043 3.8362 7.13043H8.37688C8.55079 7.13043 8.69257 7.27221 8.69257 7.44612C8.69257 7.62004 8.55079 7.76182 8.37688 7.76182V7.76182Z" fill="#2C6AB3"/>
<path d="M6.8986 9.35349H3.8362C3.66229 9.35349 3.52051 9.21171 3.52051 9.0378C3.52051 8.86388 3.66229 8.72211 3.8362 8.72211H6.8986C7.07252 8.72211 7.2143 8.86388 7.2143 9.0378C7.2143 9.21171 7.07252 9.35349 6.8986 9.35349V9.35349Z" fill="#2C6AB3"/>
<path d="M8.37688 11.0284H3.8362C3.66229 11.0284 3.52051 10.8866 3.52051 10.7127C3.52051 10.5388 3.66229 10.397 3.8362 10.397H8.37688C8.55079 10.397 8.69257 10.5388 8.69257 10.7127C8.69257 10.8866 8.55079 11.0284 8.37688 11.0284V11.0284Z" fill="#2C6AB3"/>
</g>
<defs>
<clipPath id="clip0_194_1158">
<rect width="13.14" height="9.77323" fill="white" transform="translate(1.49902 3.1134)"/>
</clipPath>
</defs>
</svg>
