<svg width="16" height="17" viewBox="0 0 16 17" fill="none" xmlns="http://www.w3.org/2000/svg">
<path d="M12.5236 14.7569H11.2689C11.0954 14.7569 10.9547 14.6162 10.9547 14.4427C10.9547 14.2692 11.0954 14.1285 11.2689 14.1285H12.5236L12.5332 13.8568C12.5332 13.6833 12.6739 13.5426 12.8474 13.5426C13.0209 13.5426 13.1616 13.6833 13.1616 13.8568V14.117C13.1616 14.4678 12.8763 14.7549 12.5236 14.7549V14.7569ZM10.0142 14.7569H8.75949C8.58603 14.7569 8.44533 14.6162 8.44533 14.4427C8.44533 14.2692 8.58603 14.1285 8.75949 14.1285H10.0142C10.1877 14.1285 10.3283 14.2692 10.3283 14.4427C10.3283 14.6162 10.1877 14.7569 10.0142 14.7569ZM7.50478 14.7569H6.25008C6.07662 14.7569 5.93592 14.6162 5.93592 14.4427C5.93592 14.2692 6.07662 14.1285 6.25008 14.1285H7.50478C7.67824 14.1285 7.81894 14.2692 7.81894 14.4427C7.81894 14.6162 7.67824 14.7569 7.50478 14.7569ZM4.99538 14.7569H3.72911C3.55565 14.7491 3.42073 14.6046 3.42651 14.4311C3.4323 14.2577 3.57685 14.115 3.75224 14.1285H4.99538C5.16884 14.1285 5.30953 14.2692 5.30953 14.4427C5.30953 14.6162 5.16884 14.7569 4.99538 14.7569V14.7569ZM3.43037 13.6718C3.25691 13.6718 3.11621 13.5311 3.11621 13.3576V12.1029C3.11621 11.9294 3.25691 11.7887 3.43037 11.7887C3.60383 11.7887 3.74453 11.9294 3.74453 12.1029V13.3576C3.74453 13.5311 3.60383 13.6718 3.43037 13.6718V13.6718ZM12.8493 12.9162C12.6759 12.9162 12.5352 12.7755 12.5352 12.6021V11.3474C12.5352 11.1739 12.6759 11.0332 12.8493 11.0332C13.0228 11.0332 13.1635 11.1739 13.1635 11.3474V12.6021C13.1635 12.7755 13.0228 12.9162 12.8493 12.9162ZM3.45542 11.1604C3.41688 11.1604 3.3764 11.1527 3.33978 11.1373C3.17981 11.0718 3.09694 10.8925 3.16054 10.7325C3.25883 10.4897 3.49012 10.3336 3.75224 10.3336H4.62147C4.79493 10.3336 4.93563 10.4743 4.93563 10.6477C4.93563 10.8212 4.79493 10.9619 4.62147 10.9619H3.75224C3.70212 11.0853 3.5807 11.1604 3.45542 11.1604V11.1604ZM12.1535 10.9619H10.8988C10.7254 10.9619 10.5847 10.8212 10.5847 10.6477C10.5847 10.4743 10.7254 10.3336 10.8988 10.3336H12.1535C12.327 10.3336 12.4677 10.4743 12.4677 10.6477C12.4677 10.8212 12.327 10.9619 12.1535 10.9619ZM9.64414 10.9619H8.38944C8.21598 10.9619 8.07528 10.8212 8.07528 10.6477C8.07528 10.4743 8.21598 10.3336 8.38944 10.3336H9.64414C9.8176 10.3336 9.9583 10.4743 9.9583 10.6477C9.9583 10.8212 9.8176 10.9619 9.64414 10.9619ZM7.13473 10.9619H5.88003C5.70657 10.9619 5.56587 10.8212 5.56587 10.6477C5.56587 10.4743 5.70657 10.3336 5.88003 10.3336H7.13473C7.30819 10.3336 7.44889 10.4743 7.44889 10.6477C7.44889 10.8212 7.30819 10.9619 7.13473 10.9619Z" fill="#183C6B"/>
<path fill-rule="evenodd" clip-rule="evenodd" d="M8.29625 3H2.42629C1.59945 3 0.930664 3.66879 0.930664 4.49562V11.4707C0.930664 12.2956 1.59945 12.9663 2.42629 12.9663H3.0546V12.2281H2.45134L2.44941 12.2262C2.00805 12.2262 1.64956 11.8735 1.64956 11.4399V6.29577C1.64956 5.86211 2.00805 5.50941 2.44941 5.50941H7.86932C7.84025 5.31273 7.8252 5.11149 7.8252 4.90674C7.8252 4.21811 7.99548 3.56926 8.29625 3ZM6.08054 4.24699C6.08054 3.99644 5.87817 3.79407 5.62761 3.79407C5.37706 3.79407 5.17469 3.99644 5.17469 4.24699C5.17469 4.49755 5.37706 4.69992 5.62761 4.69992C5.87817 4.69992 6.08054 4.49755 6.08054 4.24699ZM4.56757 4.24699C4.56757 3.99644 4.3652 3.79407 4.11464 3.79407C3.86409 3.79407 3.66172 3.99644 3.66172 4.24699C3.66172 4.49755 3.86409 4.69992 4.11464 4.69992C4.3652 4.69992 4.56757 4.49755 4.56757 4.24699ZM3.0546 4.24699C3.0546 3.99644 2.85223 3.79407 2.60168 3.79407C2.35112 3.79407 2.14875 3.99644 2.14875 4.24699C2.14875 4.49755 2.35112 4.69992 2.60168 4.69992C2.85223 4.69992 3.0546 4.49755 3.0546 4.24699Z" fill="#183C6B"/>
<path fill-rule="evenodd" clip-rule="evenodd" d="M8.44431 7.07062H6.53895C6.09082 7.07062 5.72754 7.4339 5.72754 7.88203V10.7808C5.72754 11.2289 6.09082 11.5922 6.53895 11.5922H14.3351C14.7832 11.5922 15.1465 11.2289 15.1465 10.7808V7.88203C15.1465 7.75022 15.1151 7.62575 15.0593 7.51571C14.6677 7.98743 14.1721 8.36967 13.6077 8.62725C13.5716 8.76088 13.4495 8.8592 13.3044 8.8592H12.9584C12.6246 8.94727 12.2741 8.99419 11.9126 8.99419C11.5512 8.99419 11.2007 8.94727 10.8669 8.8592H7.28144C7.10794 8.8592 6.96729 8.71854 6.96729 8.54504C6.96729 8.37153 7.10794 8.23088 7.28144 8.23088H9.5336C9.09919 7.91943 8.72836 7.52494 8.44431 7.07062ZM7.28144 9.54338C7.10794 9.54338 6.96729 9.68403 6.96729 9.85754C6.96729 10.031 7.10794 10.1717 7.28144 10.1717H11.061C11.2345 10.1717 11.3751 10.031 11.3751 9.85754C11.3751 9.68403 11.2345 9.54338 11.061 9.54338H7.28144Z" fill="#2C6AB3"/>
<path fill-rule="evenodd" clip-rule="evenodd" d="M8.26716 6.75641H6.53963C5.91903 6.75641 5.41406 7.26137 5.41406 7.88198V10.7807C5.41406 11.4013 5.91903 11.9063 6.53963 11.9063H14.3338C14.9544 11.9063 15.4594 11.4013 15.4594 10.7807V7.88198C15.4594 7.64723 15.3872 7.42904 15.2637 7.24845C15.131 7.43798 14.9826 7.61572 14.8205 7.77981C14.8274 7.81281 14.8311 7.84698 14.8311 7.88198V10.7807C14.8311 11.0544 14.6075 11.278 14.3338 11.278H6.53963C6.26595 11.278 6.04238 11.0544 6.04238 10.7807V7.88198C6.04238 7.6083 6.26595 7.38472 6.53963 7.38472H8.6622C8.51239 7.18849 8.37995 6.97828 8.26716 6.75641Z" fill="#183C6B"/>
<circle cx="13" cy="3.99419" r="3" fill="#F56A00"/>
</svg>
