<svg width="17" height="17" viewBox="0 0 17 17" fill="none" xmlns="http://www.w3.org/2000/svg">
<path d="M12.5934 14.7569H11.3387C11.1653 14.7569 11.0246 14.6162 11.0246 14.4427C11.0246 14.2692 11.1653 14.1285 11.3387 14.1285H12.5934L12.6031 13.8568C12.6031 13.6833 12.7438 13.5426 12.9172 13.5426C13.0907 13.5426 13.2314 13.6833 13.2314 13.8568V14.117C13.2314 14.4678 12.9461 14.7549 12.5934 14.7549V14.7569ZM10.084 14.7569H8.82931C8.65585 14.7569 8.51515 14.6162 8.51515 14.4427C8.51515 14.2692 8.65585 14.1285 8.82931 14.1285H10.084C10.2575 14.1285 10.3982 14.2692 10.3982 14.4427C10.3982 14.6162 10.2575 14.7569 10.084 14.7569ZM7.57461 14.7569H6.3199C6.14644 14.7569 6.00575 14.6162 6.00575 14.4427C6.00575 14.2692 6.14644 14.1285 6.3199 14.1285H7.57461C7.74807 14.1285 7.88877 14.2692 7.88877 14.4427C7.88877 14.6162 7.74807 14.7569 7.57461 14.7569ZM5.0652 14.7569H3.79893C3.62547 14.7491 3.49056 14.6046 3.49634 14.4311C3.50212 14.2577 3.64667 14.115 3.82206 14.1285H5.0652C5.23866 14.1285 5.37936 14.2692 5.37936 14.4427C5.37936 14.6162 5.23866 14.7569 5.0652 14.7569V14.7569ZM3.50019 13.6718C3.32673 13.6718 3.18604 13.5311 3.18604 13.3576V12.1029C3.18604 11.9294 3.32673 11.7887 3.50019 11.7887C3.67365 11.7887 3.81435 11.9294 3.81435 12.1029V13.3576C3.81435 13.5311 3.67365 13.6718 3.50019 13.6718V13.6718ZM12.9191 12.9162C12.7457 12.9162 12.605 12.7755 12.605 12.6021V11.3474C12.605 11.1739 12.7457 11.0332 12.9191 11.0332C13.0926 11.0332 13.2333 11.1739 13.2333 11.3474V12.6021C13.2333 12.7755 13.0926 12.9162 12.9191 12.9162ZM3.52525 11.1604C3.4867 11.1604 3.44623 11.1527 3.40961 11.1373C3.24964 11.0718 3.16676 10.8925 3.23036 10.7325C3.32866 10.4897 3.55994 10.3336 3.82206 10.3336H4.69129C4.86476 10.3336 5.00545 10.4743 5.00545 10.6477C5.00545 10.8212 4.86476 10.9619 4.69129 10.9619H3.82206C3.77195 11.0853 3.65053 11.1604 3.52525 11.1604V11.1604ZM12.2234 10.9619H10.9687C10.7952 10.9619 10.6545 10.8212 10.6545 10.6477C10.6545 10.4743 10.7952 10.3336 10.9687 10.3336H12.2234C12.3968 10.3336 12.5375 10.4743 12.5375 10.6477C12.5375 10.8212 12.3968 10.9619 12.2234 10.9619ZM9.71396 10.9619H8.45926C8.2858 10.9619 8.1451 10.8212 8.1451 10.6477C8.1451 10.4743 8.2858 10.3336 8.45926 10.3336H9.71396C9.88743 10.3336 10.0281 10.4743 10.0281 10.6477C10.0281 10.8212 9.88743 10.9619 9.71396 10.9619ZM7.20456 10.9619H5.94985C5.77639 10.9619 5.63569 10.8212 5.63569 10.6477C5.63569 10.4743 5.77639 10.3336 5.94985 10.3336H7.20456C7.37802 10.3336 7.51871 10.4743 7.51871 10.6477C7.51871 10.8212 7.37802 10.9619 7.20456 10.9619Z" fill="#183C6B"/>
<path fill-rule="evenodd" clip-rule="evenodd" d="M8.36559 3H2.49562C1.66879 3 1 3.66879 1 4.49562V11.4707C1 12.2956 1.66879 12.9663 2.49562 12.9663H3.12394V12.2281H2.52068L2.51875 12.2262C2.07739 12.2262 1.7189 11.8735 1.7189 11.4399V6.29577C1.7189 5.86211 2.07739 5.50941 2.51875 5.50941H7.93865C7.90959 5.31273 7.89453 5.11149 7.89453 4.90674C7.89453 4.21811 8.06482 3.56926 8.36559 3ZM6.14987 4.24699C6.14987 3.99644 5.9475 3.79407 5.69695 3.79407C5.44639 3.79407 5.24402 3.99644 5.24402 4.24699C5.24402 4.49755 5.44639 4.69992 5.69695 4.69992C5.9475 4.69992 6.14987 4.49755 6.14987 4.24699ZM4.63691 4.24699C4.63691 3.99644 4.43453 3.79407 4.18398 3.79407C3.93342 3.79407 3.73105 3.99644 3.73105 4.24699C3.73105 4.49755 3.93342 4.69992 4.18398 4.69992C4.43453 4.69992 4.63691 4.49755 4.63691 4.24699ZM3.12394 4.24699C3.12394 3.99644 2.92157 3.79407 2.67101 3.79407C2.42046 3.79407 2.21808 3.99644 2.21808 4.24699C2.21808 4.49755 2.42046 4.69992 2.67101 4.69992C2.92157 4.69992 3.12394 4.49755 3.12394 4.24699Z" fill="#183C6B"/>
<path fill-rule="evenodd" clip-rule="evenodd" d="M8.51365 7.07062H6.60829C6.16016 7.07062 5.79688 7.4339 5.79688 7.88203V10.7808C5.79688 11.2289 6.16016 11.5922 6.60829 11.5922H14.4044C14.8525 11.5922 15.2158 11.2289 15.2158 10.7808V7.88203C15.2158 7.75022 15.1844 7.62575 15.1286 7.51571C14.7371 7.98743 14.2415 8.36967 13.677 8.62725C13.6409 8.76088 13.5188 8.8592 13.3737 8.8592H13.0277C12.6939 8.94727 12.3434 8.99419 11.982 8.99419C11.6205 8.99419 11.27 8.94727 10.9363 8.8592H7.35078C7.17727 8.8592 7.03662 8.71854 7.03662 8.54504C7.03662 8.37153 7.17727 8.23088 7.35078 8.23088H9.60293C9.16853 7.91943 8.79769 7.52494 8.51365 7.07062ZM7.35078 9.54338C7.17727 9.54338 7.03662 9.68403 7.03662 9.85754C7.03662 10.031 7.17727 10.1717 7.35078 10.1717H11.1303C11.3038 10.1717 11.4445 10.031 11.4445 9.85754C11.4445 9.68403 11.3038 9.54338 11.1303 9.54338H7.35078Z" fill="#2C6AB3"/>
<path fill-rule="evenodd" clip-rule="evenodd" d="M8.33601 6.75641H6.60848C5.98788 6.75641 5.48291 7.26137 5.48291 7.88198V10.7807C5.48291 11.4013 5.98788 11.9063 6.60848 11.9063H14.4027C15.0233 11.9063 15.5282 11.4013 15.5282 10.7807V7.88198C15.5282 7.64723 15.456 7.42904 15.3326 7.24845C15.1999 7.43798 15.0515 7.61572 14.8893 7.77981C14.8963 7.81281 14.8999 7.84698 14.8999 7.88198V10.7807C14.8999 11.0544 14.6764 11.278 14.4027 11.278H6.60848C6.3348 11.278 6.11123 11.0544 6.11123 10.7807V7.88198C6.11123 7.6083 6.3348 7.38472 6.60848 7.38472H8.73104C8.58124 7.18849 8.44879 6.97828 8.33601 6.75641Z" fill="#183C6B"/>
<circle cx="13.0693" cy="3.99419" r="3" fill="#107E3E"/>
</svg>
