<svg width="17" height="17" viewBox="0 0 17 17" fill="none" xmlns="http://www.w3.org/2000/svg">
<g clip-path="url(#clip0_205_378)">
<path d="M16.0803 7.38742C15.6219 6.89104 14.9819 6.60166 14.3081 6.58687H14.1645L14.1074 6.41156C13.7061 5.18644 12.388 4.51897 11.1629 4.9203C11.0953 4.94142 11.0299 4.96677 10.9644 4.99634L10.7848 5.0766L10.6708 4.94776C9.5048 3.48184 7.51927 2.95378 5.78088 3.64449C5.29928 3.8367 4.85359 4.1113 4.46493 4.45771C4.07839 4.80201 3.75944 5.21601 3.52498 5.6786C3.28206 6.15175 3.13843 6.66925 3.0983 7.19943L3.07929 7.39165L2.91453 7.40855C2.38013 7.4867 1.89219 7.74862 1.53311 8.14995C1.16557 8.54495 0.960683 9.06668 0.964908 9.60742C0.956459 10.8304 1.94078 11.8274 3.16378 11.8359H4.43747V10.991H3.17223C2.81103 10.9931 2.46673 10.8431 2.22382 10.5769C1.9619 10.3214 1.81404 9.97073 1.81193 9.6053C1.8077 9.27157 1.9281 8.94628 2.15411 8.69914C2.36957 8.44989 2.67373 8.29147 3.00113 8.25979L3.87772 8.15629L3.94743 7.29026C3.98334 6.86781 4.10374 6.45591 4.30018 6.08204C4.48817 5.70817 4.74164 5.37232 5.04792 5.08716C5.34997 4.80835 5.6985 4.58656 6.08082 4.43447C6.48215 4.27605 6.90883 4.19579 7.33973 4.20001C7.8509 4.1979 8.35784 4.31408 8.8162 4.54009C9.27668 4.76399 9.68012 5.08717 10.0012 5.48638L10.5229 6.14541L11.3192 5.799C11.4946 5.71028 11.691 5.6617 11.8874 5.6617C12.1916 5.66593 12.4873 5.76309 12.7345 5.94263C12.9922 6.12429 13.178 6.38832 13.2625 6.69038L13.5054 7.4529H14.2722C14.7306 7.4529 15.1678 7.63878 15.4825 7.97041C15.7994 8.30415 15.9705 8.74984 15.9599 9.2082C15.9683 9.67501 15.7909 10.127 15.4656 10.4629C15.1593 10.7966 14.7263 10.9846 14.2743 10.9783H13.3491V11.8232H14.2785C14.6165 11.8274 14.9502 11.7619 15.2607 11.6289C15.5649 11.4958 15.8374 11.3036 16.0655 11.0628C16.2936 10.822 16.4774 10.541 16.6084 10.2348C17.0245 9.26523 16.8175 8.13939 16.0824 7.38109L16.0782 7.38742H16.0803Z" fill="#183C6B"/>
<path d="M7.89791 11.0227L5.90393 9.64763C5.83 9.56737 5.72438 9.52301 5.61455 9.52301C5.36741 9.52301 5.24067 9.66453 5.24067 9.94124C5.23223 10.0257 5.2618 10.1102 5.32305 10.1694C5.38008 10.2137 5.435 10.2623 5.48781 10.313L6.98118 11.3586C6.99597 11.3712 6.99597 11.3945 6.98118 11.4093L5.44979 12.5098L5.30615 12.6534C5.28081 12.683 5.26391 12.7168 5.25546 12.7548C5.20899 12.9808 5.35263 13.2026 5.57864 13.249C5.63356 13.2596 5.69059 13.2617 5.74551 13.249C5.80676 13.2427 5.86379 13.2195 5.91026 13.1772L7.90424 11.7578C8.04576 11.6923 8.12814 11.5423 8.10702 11.3881C8.13237 11.31 8.11758 11.2234 8.06689 11.16C8.00774 11.1157 7.95283 11.0692 7.90213 11.0164L7.89579 11.0227H7.89791Z" fill="#2C6AB3"/>
<path d="M12.013 10.3278H8.73268C8.50667 10.3278 8.3229 10.1482 8.31445 9.9222C8.31445 9.69197 8.50033 9.50397 8.73268 9.50186H12.013C12.2454 9.50397 12.4313 9.69197 12.4334 9.9222C12.4249 10.1482 12.239 10.3278 12.013 10.3278Z" fill="#2C6AB3"/>
<path d="M12.0255 11.7155H9.82448C9.59424 11.7155 9.40625 11.5297 9.40625 11.2994C9.40625 11.0692 9.59002 10.8812 9.82237 10.8791H12.0276C12.2578 10.8791 12.4479 11.0629 12.45 11.2931V11.2994C12.45 11.5297 12.262 11.7177 12.0318 11.7177H12.0255V11.7155Z" fill="#2C6AB3"/>
<path d="M12.013 13.2321H8.73268C8.50244 13.2321 8.31445 13.042 8.31445 12.8118C8.31445 12.5816 8.50033 12.3936 8.73268 12.3914H12.013C12.2454 12.3936 12.4313 12.5816 12.4334 12.8118C12.4313 13.0441 12.2433 13.23 12.013 13.2321Z" fill="#2C6AB3"/>
</g>
<circle cx="13.8491" cy="3.58011" r="2.97316" fill="#F56A00"/>
<defs>
<clipPath id="clip0_205_378">
<rect width="15.8568" height="9.91076" fill="white" transform="translate(0.96582 3.34465)"/>
</clipPath>
</defs>
</svg>
