<svg width="18" height="17" viewBox="0 0 18 17" fill="none" xmlns="http://www.w3.org/2000/svg">
<g clip-path="url(#clip0_192_801)">
<path d="M16.1496 7.38742C15.6913 6.89104 15.0512 6.60166 14.3774 6.58687H14.2338L14.1768 6.41156C13.7754 5.18644 12.4574 4.51897 11.2323 4.9203C11.1647 4.94142 11.0992 4.96677 11.0337 4.99634L10.8542 5.0766L10.7401 4.94776C9.57414 3.48184 7.58861 2.95378 5.85021 3.64449C5.36862 3.8367 4.92293 4.1113 4.53427 4.45771C4.14773 4.80201 3.82877 5.21601 3.59431 5.6786C3.3514 6.15175 3.20777 6.66925 3.16763 7.19943L3.14862 7.39165L2.98387 7.40855C2.44946 7.4867 1.96153 7.74862 1.60244 8.14995C1.23491 8.54495 1.03002 9.06668 1.03424 9.60742C1.02579 10.8304 2.01011 11.8274 3.23311 11.8359H4.50681V10.991H3.24156C2.88037 10.9931 2.53607 10.8431 2.29315 10.5769C2.03123 10.3214 1.88338 9.97073 1.88126 9.6053C1.87704 9.27157 1.99744 8.94628 2.22345 8.69914C2.4389 8.44989 2.74307 8.29147 3.07047 8.25979L3.94706 8.15629L4.01676 7.29026C4.05267 6.86781 4.17307 6.45591 4.36951 6.08204C4.55751 5.70817 4.81098 5.37232 5.11726 5.08716C5.41931 4.80835 5.76783 4.58656 6.15015 4.43447C6.55149 4.27605 6.97816 4.19579 7.40907 4.20001C7.92023 4.1979 8.42718 4.31408 8.88554 4.54009C9.34601 4.76399 9.74946 5.08717 10.0705 5.48638L10.5923 6.14541L11.3886 5.799C11.5639 5.71028 11.7603 5.6617 11.9568 5.6617C12.2609 5.66593 12.5567 5.76309 12.8038 5.94263C13.0615 6.12429 13.2474 6.38832 13.3319 6.69038L13.5748 7.4529H14.3415C14.7999 7.4529 15.2371 7.63878 15.5519 7.97041C15.8687 8.30415 16.0398 8.74984 16.0292 9.2082C16.0377 9.67501 15.8602 10.127 15.535 10.4629C15.2287 10.7966 14.7957 10.9846 14.3436 10.9783H13.4185V11.8232H14.3479C14.6858 11.8274 15.0196 11.7619 15.3301 11.6289C15.6342 11.4958 15.9067 11.3036 16.1348 11.0628C16.363 10.822 16.5467 10.541 16.6777 10.2348C17.0938 9.26523 16.8868 8.13939 16.1517 7.38109L16.1475 7.38742H16.1496Z" fill="#183C6B"/>
<path d="M7.96724 11.0227L5.97326 9.64763C5.89933 9.56737 5.79372 9.52301 5.68388 9.52301C5.43675 9.52301 5.31001 9.66453 5.31001 9.94124C5.30156 10.0257 5.33113 10.1102 5.39239 10.1694C5.44942 10.2137 5.50434 10.2623 5.55715 10.313L7.05052 11.3586C7.0653 11.3712 7.0653 11.3945 7.05052 11.4093L5.51913 12.5098L5.37549 12.6534C5.35014 12.683 5.33325 12.7168 5.3248 12.7548C5.27833 12.9808 5.42196 13.2026 5.64797 13.249C5.70289 13.2596 5.75992 13.2617 5.81484 13.249C5.8761 13.2427 5.93313 13.2195 5.9796 13.1772L7.97358 11.7578C8.1151 11.6923 8.19748 11.5423 8.17636 11.3881C8.2017 11.31 8.18692 11.2234 8.13622 11.16C8.07708 11.1157 8.02216 11.0692 7.97147 11.0164L7.96513 11.0227H7.96724Z" fill="#2C6AB3"/>
<path d="M12.0824 10.3278H8.80202C8.57601 10.3278 8.39224 10.1482 8.38379 9.9222C8.38379 9.69197 8.56967 9.50397 8.80202 9.50186H12.0824C12.3147 9.50397 12.5006 9.69197 12.5027 9.9222C12.4943 10.1482 12.3084 10.3278 12.0824 10.3278Z" fill="#2C6AB3"/>
<path d="M12.0948 11.7155H9.89381C9.66358 11.7155 9.47559 11.5297 9.47559 11.2994C9.47559 11.0692 9.65935 10.8812 9.8917 10.8791H12.0969C12.3271 10.8791 12.5173 11.0629 12.5194 11.2931V11.2994C12.5194 11.5297 12.3314 11.7177 12.1011 11.7177H12.0948V11.7155Z" fill="#2C6AB3"/>
<path d="M12.0824 13.2321H8.80202C8.57178 13.2321 8.38379 13.042 8.38379 12.8118C8.38379 12.5816 8.56967 12.3936 8.80202 12.3914H12.0824C12.3147 12.3936 12.5006 12.5816 12.5027 12.8118C12.5006 13.0441 12.3126 13.23 12.0824 13.2321Z" fill="#2C6AB3"/>
</g>
<circle cx="13.9185" cy="3.58011" r="2.97316" fill="#107E3E"/>
<defs>
<clipPath id="clip0_192_801">
<rect width="15.8568" height="9.91076" fill="white" transform="translate(1.03467 3.34465)"/>
</clipPath>
</defs>
</svg>
