<svg width="17" height="17" viewBox="0 0 17 17" fill="none" xmlns="http://www.w3.org/2000/svg">
<g clip-path="url(#clip0_192_793)">
<path d="M15.115 7.38741C14.6566 6.89103 14.0166 6.60165 13.3428 6.58686H13.1991L13.1421 6.41154C12.7408 5.18643 11.4227 4.51895 10.1976 4.92028C10.13 4.9414 10.0645 4.96675 9.99905 4.99632L9.81951 5.07659L9.70544 4.94774C8.53947 3.48183 6.55394 2.95376 4.81554 3.64447C4.33395 3.83669 3.88826 4.11128 3.4996 4.45769C3.11306 4.80199 2.79411 5.216 2.55964 5.67858C2.31673 6.15173 2.1731 6.66924 2.13297 7.19942L2.11396 7.39163L1.9492 7.40853C1.41479 7.48668 0.926861 7.74861 0.567776 8.14994C0.200241 8.54493 -0.00464876 9.06666 -0.000424225 9.6074C-0.00887329 10.8304 0.975443 11.8274 2.19845 11.8358H3.47214V10.9909H2.20689C1.8457 10.993 1.5014 10.8431 1.25849 10.5769C0.996566 10.3213 0.848707 9.97071 0.846595 9.60529C0.84237 9.27155 0.96277 8.94626 1.18878 8.69913C1.40423 8.44988 1.7084 8.29146 2.0358 8.25977L2.91239 8.15627L2.9821 7.29024C3.01801 6.86779 3.1384 6.4559 3.33485 6.08203C3.52284 5.70816 3.77631 5.37231 4.08259 5.08715C4.38464 4.80833 4.73317 4.58654 5.11549 4.43446C5.51682 4.27604 5.9435 4.19577 6.3744 4.2C6.88557 4.19789 7.39251 4.31406 7.85087 4.54007C8.31135 4.76397 8.71479 5.08715 9.03585 5.48637L9.55758 6.1454L10.3539 5.79898C10.5292 5.71027 10.7257 5.66169 10.9221 5.66169C11.2263 5.66591 11.522 5.76308 11.7691 5.94262C12.0268 6.12427 12.2127 6.38831 12.2972 6.69036L12.5401 7.45289H13.3069C13.7652 7.45289 14.2025 7.63877 14.5172 7.97039C14.834 8.30413 15.0051 8.74982 14.9946 9.20818C15.003 9.67499 14.8256 10.127 14.5003 10.4629C14.194 10.7966 13.761 10.9846 13.309 10.9783H12.3838V11.8232H13.3132C13.6512 11.8274 13.9849 11.7619 14.2954 11.6288C14.5996 11.4958 14.872 11.3036 15.1002 11.0628C15.3283 10.822 15.5121 10.541 15.643 10.2347C16.0591 9.26521 15.8521 8.13938 15.1171 7.38107L15.1128 7.38741H15.115Z" fill="#183C6B"/>
<path d="M6.9316 11.0227L4.93762 9.64763C4.86369 9.56737 4.75808 9.52301 4.64824 9.52301C4.4011 9.52301 4.27437 9.66453 4.27437 9.94124C4.26592 10.0257 4.29549 10.1102 4.35674 10.1694C4.41378 10.2137 4.46869 10.2623 4.5215 10.313L6.01487 11.3586C6.02966 11.3712 6.02966 11.3945 6.01487 11.4093L4.48348 12.5098L4.33985 12.6534C4.3145 12.683 4.2976 12.7168 4.28915 12.7548C4.24268 12.9808 4.38632 13.2026 4.61233 13.249C4.66725 13.2596 4.72428 13.2617 4.7792 13.249C4.84045 13.2427 4.89748 13.2195 4.94395 13.1772L6.93793 11.7578C7.07946 11.6923 7.16184 11.5423 7.14071 11.3881C7.16606 11.31 7.15127 11.2234 7.10058 11.16C7.04144 11.1157 6.98652 11.0692 6.93582 11.0164L6.92949 11.0227H6.9316Z" fill="#2C6AB3"/>
<path d="M11.0467 10.3278H7.76637C7.54036 10.3278 7.35659 10.1482 7.34814 9.9222C7.34814 9.69197 7.53402 9.50397 7.76637 9.50186H11.0467C11.2791 9.50397 11.465 9.69197 11.4671 9.9222C11.4586 10.1482 11.2727 10.3278 11.0467 10.3278Z" fill="#2C6AB3"/>
<path d="M11.0592 11.7155H8.85817C8.62793 11.7155 8.43994 11.5297 8.43994 11.2994C8.43994 11.0692 8.62371 10.8812 8.85606 10.8791H11.0613C11.2915 10.8791 11.4816 11.0629 11.4837 11.2931V11.2994C11.4837 11.5297 11.2957 11.7177 11.0655 11.7177H11.0592V11.7155Z" fill="#2C6AB3"/>
<path d="M11.0467 13.2321H7.76637C7.53614 13.2321 7.34814 13.042 7.34814 12.8118C7.34814 12.5816 7.53402 12.3936 7.76637 12.3914H11.0467C11.2791 12.3936 11.465 12.5816 11.4671 12.8118C11.465 13.0441 11.277 13.23 11.0467 13.2321Z" fill="#2C6AB3"/>
</g>
<defs>
<clipPath id="clip0_192_793">
<rect width="15.8568" height="9.91076" fill="white" transform="translate(0 3.34465)"/>
</clipPath>
</defs>
</svg>
