<svg width="17" height="17" viewBox="0 0 17 17" fill="none" xmlns="http://www.w3.org/2000/svg">
<path d="M2.69039 11.5807C2.23207 11.5807 1.85981 11.2145 1.85981 10.7642V5.42241C1.85981 4.97209 2.23207 4.60583 2.69039 4.60583H13.448C13.9063 4.60583 14.2785 4.97009 14.2785 5.42241V5.75664H15.0251V3.55309C15.0251 2.69649 14.3306 2 13.472 2H2.66637C1.80777 2 1.11328 2.69449 1.11328 3.55309V10.7962C1.11328 11.6528 1.80777 12.3493 2.66637 12.3493H3.31883V11.5827H2.69239L2.69039 11.5807ZM5.99071 2.82458C6.25089 2.82458 6.46104 3.03473 6.46104 3.29491C6.46104 3.55509 6.25089 3.76524 5.99071 3.76524C5.73053 3.76524 5.52038 3.55509 5.52038 3.29491C5.52038 3.03473 5.73053 2.82458 5.99071 2.82458V2.82458ZM4.41961 2.82458C4.67979 2.82458 4.88994 3.03473 4.88994 3.29491C4.88994 3.55509 4.67979 3.76524 4.41961 3.76524C4.15942 3.76524 3.94928 3.55509 3.94928 3.29491C3.94928 3.03473 4.15942 2.82458 4.41961 2.82458V2.82458ZM2.8485 2.82458C3.10868 2.82458 3.31883 3.03473 3.31883 3.29491C3.31883 3.55509 3.10868 3.76524 2.8485 3.76524C2.58832 3.76524 2.37817 3.55509 2.37817 3.29491C2.37817 3.03473 2.58832 2.82458 2.8485 2.82458V2.82458Z" fill="#183C6B"/>
<path d="M14.7725 7.82812C14.7004 7.73606 14.5903 7.68202 14.4723 7.68202C14.3882 7.68202 14.3061 7.71004 14.2381 7.76207C13.4115 8.42654 12.8311 9.34519 12.5869 10.3719C10.8297 7.21169 6.31453 6.87345 6.26649 6.86945H6.24248C6.05234 6.86945 5.89023 7.01155 5.86621 7.19768C5.85821 7.24971 5.26979 12.3193 8.85632 14.0485C7.63946 14.3087 6.79887 14.6749 6.35656 15.1413C6.21246 15.2914 6.21846 15.5335 6.37057 15.6756C6.44062 15.7437 6.53468 15.7797 6.63075 15.7797C6.73482 15.7797 6.83489 15.7357 6.90494 15.6616C7.36927 15.1753 8.52608 14.807 10.3454 14.5689C10.6015 14.5348 10.8917 14.4968 10.8958 14.1606C10.8937 13.9704 10.7557 13.8103 10.5675 13.7823C6.62074 13.1739 6.50266 9.081 6.58272 7.66801C7.88563 7.85014 11.6383 8.66271 12.3848 11.967C12.4248 12.1492 12.5889 12.2793 12.7731 12.2793H12.7931C12.9472 12.2652 13.1313 12.1732 13.1453 11.8209C13.2034 10.3019 13.7418 9.10502 14.6964 8.36049C14.8605 8.2324 14.8906 7.99424 14.7625 7.83012L14.7725 7.82812Z" fill="#2C6AB3"/>
<path d="M11.8551 8.28843H11.8611C11.9011 8.28843 11.9411 8.28243 11.9811 8.26842C12.1773 8.20037 12.2834 7.98422 12.2153 7.78608C12.0752 7.37779 11.9811 6.69732 12.1793 6.5312C12.2033 6.51119 12.2633 6.47716 12.3914 6.47716C12.5836 6.47716 12.9558 6.55522 13.6283 6.92348C13.6843 6.9535 13.7464 6.96951 13.8084 6.96951C13.9465 6.96951 14.0746 6.89345 14.1407 6.77337C14.2407 6.59124 14.1747 6.35908 13.9906 6.25901C13.3281 5.89475 12.7997 5.71863 12.3794 5.71863C12.1032 5.71863 11.8711 5.79668 11.6869 5.95279C11.0185 6.51719 11.4107 7.78608 11.4968 8.03426C11.5488 8.18636 11.6929 8.28843 11.8531 8.28843H11.8551Z" fill="#2C6AB3"/>
<path d="M5.71666 11.7829C5.67863 11.7829 5.64261 11.7889 5.60458 11.7989C4.41975 12.1652 3.82333 12.6375 3.7833 13.2399C3.72326 14.1366 5.00216 14.755 5.14826 14.8231C5.19829 14.8471 5.25233 14.8591 5.30837 14.8591C5.45447 14.8591 5.59057 14.773 5.65061 14.6409C5.69264 14.5489 5.69865 14.4468 5.66262 14.3507C5.6286 14.2567 5.55855 14.1806 5.46648 14.1366C5.0662 13.9484 4.51982 13.5522 4.53783 13.29C4.54183 13.2259 4.62389 12.8937 5.82874 12.5214C5.9248 12.4914 6.00486 12.4254 6.05089 12.3353C6.09693 12.2452 6.10693 12.1432 6.07691 12.0471C6.02688 11.887 5.88277 11.7809 5.71466 11.7809L5.71666 11.7829Z" fill="#2C6AB3"/>
</svg>
