<svg width="17" height="16" viewBox="0 0 17 16" fill="none" xmlns="http://www.w3.org/2000/svg">
<path fill-rule="evenodd" clip-rule="evenodd" d="M9.38605 1.35645L8.08425 0.568939L5.40771 2.16973L8.08425 3.73784L8.10689 3.72442C8.24171 2.78646 8.70925 1.95599 9.38605 1.35645ZM8.10374 4.82511L8.08425 4.81354L5.40771 6.38632V9.58323L8.08425 11.1537L10.7304 9.58323V7.99475C9.34635 7.5289 8.3084 6.30998 8.10374 4.82511ZM14.4246 7.34002C13.7548 7.87704 12.9045 8.19827 11.9792 8.19827C11.9119 8.19827 11.8449 8.19657 11.7784 8.19321V9.06059L14.4246 7.46213V7.34002ZM7.0086 4.26289L4.36006 5.89168V9.06292L1.71387 7.46213V4.29323L4.36006 2.69244L7.0086 4.26289ZM4.36006 13.3075L1.71387 11.7091V8.54019L4.36006 10.1083V13.3075ZM5.40771 13.8303V10.6614L8.08425 12.2598L10.7304 10.659V13.8303L8.08425 15.431L5.40771 13.8303ZM11.7783 13.3099L14.4245 11.7114V8.54019L11.7783 10.1106V13.3099Z" fill="#2C6AB3"/>
<circle cx="12.9185" cy="3.34682" r="2.97316" fill="#107E3E"/>
</svg>
