<svg width="16" height="16" viewBox="0 0 16 16" fill="none" xmlns="http://www.w3.org/2000/svg">
<path fill-rule="evenodd" clip-rule="evenodd" d="M9.31671 1.35645L8.01491 0.568939L5.33838 2.16973L8.01491 3.73784L8.03756 3.72442C8.17238 2.78646 8.63991 1.95599 9.31671 1.35645ZM8.0344 4.82511L8.01491 4.81354L5.33838 6.38632V9.58323L8.01491 11.1537L10.6611 9.58323V7.99475C9.27702 7.5289 8.23907 6.30998 8.0344 4.82511ZM14.3553 7.34002C13.6855 7.87704 12.8352 8.19827 11.9099 8.19827C11.8425 8.19827 11.7756 8.19657 11.7091 8.19321V9.06059L14.3553 7.46213V7.34002ZM6.93926 4.26289L4.29073 5.89168V9.06292L1.64453 7.46213V4.29323L4.29073 2.69244L6.93926 4.26289ZM4.29073 13.3075L1.64453 11.7091V8.54019L4.29073 10.1083V13.3075ZM5.33838 13.8303V10.6614L8.01491 12.2598L10.6611 10.659V13.8303L8.01491 15.431L5.33838 13.8303ZM11.709 13.3099L14.3552 11.7114V8.54019L11.709 10.1106V13.3099Z" fill="#2C6AB3"/>
<circle cx="12.8491" cy="3.34682" r="2.97316" fill="#F56A00"/>
</svg>
