<svg width="17" height="16" viewBox="0 0 17 16" fill="none" xmlns="http://www.w3.org/2000/svg">
<g clip-path="url(#clip0_194_865)">
<path d="M4.36006 5.89165L7.0086 4.26286L4.36006 2.69241L1.71387 4.2932V7.4621L4.36006 9.06289V5.89165Z" fill="#2C6AB3"/>
<path d="M1.71387 11.7091L4.36006 13.3075V10.1083L1.71387 8.54016V11.7091Z" fill="#2C6AB3"/>
<path d="M10.7304 2.16969L8.08425 0.568909L5.40771 2.16969L8.08425 3.73781L10.7304 2.16969Z" fill="#2C6AB3"/>
<path d="M5.40771 10.6613V13.8302L8.08425 15.431L10.7304 13.8302V10.659L8.08425 12.2598L5.40771 10.6613Z" fill="#2C6AB3"/>
<path d="M11.7784 2.69241L9.12988 4.2932L11.7784 5.89165V9.06056L14.4246 7.4621V4.29087L11.7784 2.69241Z" fill="#2C6AB3"/>
<path d="M5.40771 6.38629V9.5832L8.08425 11.1536L10.7304 9.5832V6.38396L8.08425 4.81351L5.40771 6.38629Z" fill="#2C6AB3"/>
<path d="M11.7783 13.3098L14.4245 11.7114V8.54016L11.7783 10.1106V13.3098Z" fill="#2C6AB3"/>
</g>
<defs>
<clipPath id="clip0_194_865">
<rect width="12.7106" height="14.8621" fill="white" transform="translate(1.71387 0.568939)"/>
</clipPath>
</defs>
</svg>
