<svg width="17" height="17" viewBox="0 0 17 17" fill="none" xmlns="http://www.w3.org/2000/svg">
<g clip-path="url(#clip0_194_1082)">
<path d="M12.3101 4.68961C10.2343 2.34597 6.65144 2.12894 4.30605 4.20653C3.09135 5.28296 2.39648 6.82846 2.39648 8.45273H3.51142C3.51142 5.93757 5.55051 3.89673 8.06567 3.89673C9.25237 3.89673 10.3918 4.3588 11.2424 5.18669L10.208 5.66627L11.6205 6.66044L13.033 7.6546L13.1888 5.93582L13.3428 4.21703L12.3119 4.69486L12.3101 4.68961Z" fill="#183C6B"/>
<path d="M7.76622 6.91947L6.74405 7.54782V8.77127L5.72363 8.15342V6.92997L6.74405 6.31212L7.76622 6.91772V6.91947ZM5.72363 8.56824L6.74405 9.17384V10.4078L5.72363 9.78994V8.56649V8.56824ZM8.18104 6.71643L7.15012 6.11083L8.18104 5.49298L9.20146 6.11083L8.18104 6.71643ZM8.18104 7.13125L9.20146 7.73685V8.97081L8.18104 9.57641L7.15012 8.97081V7.73685L8.18104 7.13125ZM8.18104 10.0035L9.20146 9.38563V10.6091L8.18104 11.2287L7.15012 10.6108V9.38563L8.18104 10.0017V10.0035ZM10.6279 6.92822V8.15167L9.60578 8.76952V7.54782L8.58536 6.92997L9.60578 6.31212L10.6279 6.92822ZM9.60753 9.17209L10.6279 8.56649V9.78994L9.60753 10.4078V9.17384V9.17209Z" fill="#2C6AB3"/>
<path d="M12.6247 8.45268C12.6264 10.9661 10.5908 13.0069 8.0774 13.0087C6.88896 13.0087 5.74777 12.5466 4.89713 11.717L6.04007 11.1429L4.59608 10.1942L3.15209 9.24556L3.05407 10.9696L2.95605 12.6936L3.85395 12.2421C5.9473 14.5717 9.53364 14.7625 11.8615 12.6691C13.0587 11.5927 13.7413 10.0594 13.7413 8.45093H12.6247V8.45268Z" fill="#183C6B"/>
</g>
<defs>
<clipPath id="clip0_194_1082">
<rect width="11.3454" height="11.3419" fill="white" transform="translate(2.39648 2.78003)"/>
</clipPath>
</defs>
</svg>
