<svg width="16" height="17" viewBox="0 0 16 17" fill="none" xmlns="http://www.w3.org/2000/svg">
<path fill-rule="evenodd" clip-rule="evenodd" d="M8.09513 5.5029L7.08078 6.11082L8.1117 6.71642L8.3738 6.56087C8.23397 6.22905 8.13859 5.87391 8.09513 5.5029ZM8.54361 6.91325L8.51602 6.92995L8.57154 6.96357C8.56211 6.94687 8.5528 6.9301 8.54361 6.91325ZM9.53644 8.09779V8.76951L10.0609 8.45249C9.87626 8.3483 9.70091 8.22955 9.53644 8.09779ZM10.4369 8.63872L9.53819 9.17208V9.17383V10.4078L10.5586 9.78993V8.68862C10.5177 8.67265 10.4771 8.65601 10.4369 8.63872ZM6.67472 7.54781L7.69689 6.91945V6.9177L6.67472 6.3121L5.6543 6.92995V8.15341L6.67472 8.77126V7.54781ZM6.67472 9.17383L5.6543 8.56823V9.78993L6.67472 10.4078V9.17383ZM9.13212 7.73684L8.1117 7.13124L7.08078 7.73684V8.97079L8.1117 9.57639L9.13212 8.97079V7.73684ZM9.13212 9.38561L8.1117 10.0035V10.0017L7.08078 9.38561V10.6108L8.1117 11.2287L9.13212 10.6091V9.38561Z" fill="#2C6AB3"/>
<path fill-rule="evenodd" clip-rule="evenodd" d="M12.5323 8.91652C12.3016 11.2125 10.3649 13.007 8.00807 13.0087C6.81962 13.0087 5.67843 12.5466 4.82779 11.717L5.97073 11.1429L4.52674 10.1942L3.08275 9.24556L2.98473 10.9696L2.88672 12.6936L3.78462 12.2421C5.87796 14.5717 9.46431 14.7625 11.7922 12.6691C12.9593 11.6198 13.6373 10.1363 13.6707 8.57225C13.3174 8.74174 12.9347 8.85974 12.5323 8.91652ZM8.23697 3.90307C8.15703 3.89885 8.07679 3.89673 7.99634 3.89673C5.48117 3.89673 3.44208 5.93757 3.44208 8.45273H2.32715C2.32715 6.82846 3.02201 5.28296 4.23671 4.20653C5.52142 3.06851 7.1774 2.61897 8.75362 2.83029C8.53004 3.15576 8.35443 3.51676 8.23697 3.90307Z" fill="#183C6B"/>
<circle cx="12.9204" cy="4.10366" r="2.97316" fill="#F56A00"/>
</svg>
