<svg xmlns="http://www.w3.org/2000/svg" xmlns:xlink="http://www.w3.org/1999/xlink" width="16" height="16" viewBox="0 0 16 16">
  <defs>
    <clipPath id="clip-sap_mobile_error">
      <rect width="16" height="16"/>
    </clipPath>
  </defs>
  <g id="sap_mobile_error" clip-path="url(#clip-sap_mobile_error)">
    <g id="Group_3928" data-name="Group 3928" transform="translate(118.091 99.761)">
      <path id="Path_1574" data-name="Path 1574" d="M-102.337-92.552l-2.012-3.483-2.01-3.483a.282.282,0,0,0-.383-.1.282.282,0,0,0-.1.1l-2.01,3.483-2.011,3.483a.277.277,0,0,0,.1.378h0a.253.253,0,0,0,.139.038h8.045a.277.277,0,0,0,.278-.277.287.287,0,0,0-.037-.14Zm-3.816-.774a.447.447,0,0,1-.447.447h0a.446.446,0,0,1-.446-.446h0v-.2a.447.447,0,0,1,.444-.446h0a.449.449,0,0,1,.447.446Zm0-1.533a.447.447,0,0,1-.447.447h0a.446.446,0,0,1-.446-.446h0v-2.627a.447.447,0,0,1,.445-.447h0a.449.449,0,0,1,.447.447h0Z" fill="#ffaf00"/>
      <path id="Path_1841" data-name="Path 1841" d="M-103.664-91.758a6.421,6.421,0,0,1-6.416,6.427,6.421,6.421,0,0,1-4.484-1.821l1.611-.811-2.036-1.336-2.036-1.336-.139,2.431-.139,2.431,1.266-.638a8,8,0,0,0,11.3.6,8,8,0,0,0,2.649-5.944Z" fill="#4f6374"/>
      <g id="Group_3926" data-name="Group 3926">
        <path id="Path_2035" data-name="Path 2035" d="M-110.141-95.8l-1.244.744.608.358Z" fill="#009bdd"/>
        <path id="Path_2036" data-name="Path 2036" d="M-110.6-93.135h0Z" fill="#009bdd"/>
        <path id="Path_2037" data-name="Path 2037" d="M-113.4-89.866l1.44.871v-1.741l-1.44-.855Z" fill="#009bdd"/>
        <path id="Path_2038" data-name="Path 2038" d="M-107.243-91.136l-.676.4v1.741l1.44-.871v-1.271Z" fill="#009bdd"/>
        <path id="Path_2039" data-name="Path 2039" d="M-110.624-91.136h-.038a1.229,1.229,0,0,1-.618-.183,1.2,1.2,0,0,1-.106-.1v.392l1.456.855,1.44-.854v-.116Z" fill="#009bdd"/>
        <path id="Path_2040" data-name="Path 2040" d="M-111.386-90.436v1.726l1.456.871,1.44-.871v-1.725l-1.44.871Z" fill="#009bdd"/>
        <path id="Path_2041" data-name="Path 2041" d="M-111.047-94.233l-.909-.539-1.44.871v1.724l1.44.871v-1.725l.334-.205Z" fill="#009bdd"/>
      </g>
      <g id="Group_3927" data-name="Group 3927">
        <path id="Path_2043" data-name="Path 2043" d="M-108.841-98.057l.821-1.422a7.988,7.988,0,0,0-7.381,1.742,8,8,0,0,0-2.69,5.978h1.573a6.426,6.426,0,0,1,6.431-6.421A6.381,6.381,0,0,1-108.841-98.057Z" fill="#4f6374"/>
      </g>
    </g>
  </g>
</svg>
