<svg width="17" height="16" viewBox="0 0 17 16" fill="none" xmlns="http://www.w3.org/2000/svg">
<g clip-path="url(#clip0_194_1008)">
<path d="M14.5482 7.18542C14.1313 6.7333 13.5477 6.47036 12.9353 6.45593H12.8038L12.7525 6.2956C12.387 5.17973 11.1877 4.57209 10.0718 4.93763C10.0109 4.95687 9.94999 4.97932 9.89067 5.00657L9.72713 5.08032L9.62292 4.96329C8.56156 3.63097 6.75307 3.14999 5.17064 3.77847C4.73295 3.95323 4.32572 4.20334 3.973 4.51918C3.62028 4.83342 3.33009 5.21019 3.11685 5.63025C2.8956 6.06153 2.76413 6.53289 2.72886 7.01547L2.71123 7.19023L2.56052 7.20626C2.07473 7.2768 1.62902 7.51569 1.30195 7.88124C0.966867 8.24197 0.782491 8.71654 0.785698 9.20874C0.777682 10.323 1.67391 11.2305 2.78818 11.2385H3.94735V10.4689H2.7946C2.46592 10.4705 2.15168 10.3342 1.93043 10.0921C1.69155 9.85967 1.55687 9.54062 1.55527 9.20714C1.55206 8.90252 1.66108 8.60752 1.8663 8.38146C2.0619 8.15379 2.33927 8.0095 2.63747 7.98064L3.4359 7.88605L3.50003 7.09724C3.5321 6.71245 3.64272 6.33729 3.82069 5.99739C3.99224 5.6575 4.22311 5.35128 4.50208 5.09155C4.77784 4.83823 5.09368 4.63622 5.4432 4.49673C5.80874 4.35244 6.19673 4.27869 6.58954 4.2835C7.05448 4.2819 7.51623 4.38771 7.93308 4.59293C8.35313 4.79655 8.72028 5.09155 9.01208 5.45389L9.48664 6.05351L10.2113 5.73766C10.3716 5.6575 10.5496 5.61261 10.7292 5.61261C11.0065 5.61582 11.2759 5.7056 11.5004 5.86913C11.7344 6.03427 11.9044 6.27476 11.9813 6.55052L12.2026 7.24474H12.9C13.3169 7.24474 13.7161 7.41468 14.0015 7.7161C14.29 8.02072 14.4456 8.42635 14.4359 8.8432C14.444 9.26806 14.282 9.68011 13.9854 9.98633C13.7065 10.291 13.312 10.4609 12.9 10.4561H12.0583V11.2257H12.9048C13.2126 11.2289 13.5157 11.1695 13.7994 11.0493C14.0768 10.9274 14.3237 10.7527 14.5321 10.5346C14.7406 10.315 14.9073 10.0601 15.0259 9.78111C15.4043 8.89771 15.2167 7.87322 14.5466 7.18221L14.5434 7.18862H14.545L14.5482 7.18542Z" fill="#193D6B"/>
<path d="M5.18802 10.6966V10.2926H5.67701L5.75237 9.97352C5.81009 9.72341 5.90789 9.48773 6.04256 9.26969L6.21732 8.99072L5.87101 8.64441L6.17242 8.343L6.51873 8.6893L6.7977 8.51455C7.01574 8.37987 7.25143 8.28207 7.50314 8.22275L7.82219 8.1474V7.6584H8.24866V8.1474L8.56771 8.22275C8.81782 8.28047 9.0535 8.37827 9.27154 8.51294L9.55051 8.6877L9.89682 8.34139L10.1982 8.64281L9.85193 8.98912L10.0267 9.26808C10.1614 9.48613 10.2592 9.72181 10.3185 9.97192L10.3938 10.291H10.8828V10.695H11.46V10.1002C11.46 9.88695 11.2869 9.71379 11.0736 9.71379H10.8492C10.785 9.49094 10.6969 9.2761 10.583 9.07409L10.7401 8.91697C10.8908 8.76626 10.8908 8.52256 10.7401 8.37025L10.1694 7.79949C10.0187 7.64878 9.77337 7.64878 9.62266 7.79949L9.46554 7.95661C9.26353 7.84278 9.04869 7.7546 8.82584 7.69047V7.46601C8.82584 7.25277 8.65268 7.07962 8.43945 7.07962H7.6314C7.41817 7.07962 7.24501 7.25277 7.24501 7.46601V7.69047C7.02216 7.7546 6.80732 7.84278 6.60531 7.95661L6.44819 7.79949C6.29748 7.64718 6.05218 7.64718 5.90147 7.79949L5.33071 8.37025C5.18 8.52096 5.18 8.76626 5.33071 8.91697L5.48783 9.07409C5.374 9.2761 5.28582 9.49094 5.22169 9.71379H4.99723C4.78399 9.71379 4.61084 9.88695 4.61084 10.1002V10.695H5.18802V10.6966Z" fill="#143C6A"/>
<path d="M8.59817 10.3486L7.50635 13.5872" stroke="#306BB3" stroke-width="0.49541" stroke-linecap="round" stroke-linejoin="round"/>
<path d="M9.44336 11.0573L10.0077 11.5783L10.5737 12.0978L10.0077 12.6189L9.44336 13.1399" stroke="#306BB3" stroke-width="0.49541" stroke-linecap="round" stroke-linejoin="round"/>
<path d="M6.52714 13.1399L5.96118 12.6189L5.39844 12.0978L5.96118 11.5783L6.52714 11.0573" stroke="#306BB3" stroke-width="0.49541" stroke-linecap="round" stroke-linejoin="round"/>
</g>
<circle cx="12.9185" cy="3.34682" r="2.97316" fill="#107E3E"/>
<defs>
<clipPath id="clip0_194_1008">
<rect width="14.4294" height="14.4294" fill="white" transform="translate(0.785645 1)"/>
</clipPath>
</defs>
</svg>
