<svg width="16" height="16" viewBox="0 0 16 16" fill="none" xmlns="http://www.w3.org/2000/svg">
<g clip-path="url(#clip0_205_388)">
<path d="M14.4793 7.18542C14.0625 6.7333 13.4789 6.47036 12.8664 6.45593H12.735L12.6837 6.2956C12.3181 5.17973 11.1189 4.57209 10.003 4.93763C9.94207 4.95687 9.88114 4.97932 9.82182 5.00657L9.65829 5.08032L9.55407 4.96329C8.49271 3.63097 6.68422 3.14999 5.10179 3.77847C4.6641 3.95323 4.25687 4.20334 3.90415 4.51918C3.55143 4.83342 3.26124 5.21019 3.048 5.63025C2.82675 6.06153 2.69529 6.53289 2.66001 7.01547L2.64238 7.19023L2.49167 7.20626C2.00588 7.2768 1.56017 7.51569 1.2331 7.88124C0.89802 8.24197 0.713644 8.71654 0.71685 9.20874C0.708834 10.323 1.60506 11.2305 2.71933 11.2385H3.8785V10.4689H2.72575C2.39708 10.4705 2.08284 10.3342 1.86159 10.0921C1.6227 9.85967 1.48802 9.54062 1.48642 9.20714C1.48321 8.90252 1.59224 8.60752 1.79745 8.38146C1.99305 8.15379 2.27042 8.0095 2.56863 7.98064L3.36706 7.88605L3.43119 7.09724C3.46325 6.71245 3.57388 6.33729 3.75184 5.99739C3.92339 5.6575 4.15426 5.35128 4.43323 5.09155C4.70899 4.83823 5.02484 4.63622 5.37435 4.49673C5.73989 4.35244 6.12789 4.27869 6.52069 4.2835C6.98564 4.2819 7.44738 4.38771 7.86423 4.59293C8.28428 4.79655 8.65143 5.09155 8.94323 5.45389L9.4178 6.05351L10.1425 5.73766C10.3028 5.6575 10.4808 5.61261 10.6603 5.61261C10.9377 5.61582 11.207 5.7056 11.4315 5.86913C11.6656 6.03427 11.8355 6.27476 11.9125 6.55052L12.1337 7.24474H12.8312C13.248 7.24474 13.6472 7.41468 13.9326 7.7161C14.2212 8.02072 14.3767 8.42635 14.3671 8.8432C14.3751 9.26806 14.2132 9.68011 13.9166 9.98633C13.6376 10.291 13.2432 10.4609 12.8312 10.4561H11.9894V11.2257H12.836C13.1438 11.2289 13.4468 11.1695 13.7306 11.0493C14.008 10.9274 14.2549 10.7527 14.4633 10.5346C14.6717 10.315 14.8385 10.0601 14.9571 9.78111C15.3355 8.89771 15.1479 7.87322 14.4777 7.18221L14.4745 7.18862H14.4761L14.4793 7.18542Z" fill="#193D6B"/>
<path d="M5.11917 10.6966V10.2926H5.60817L5.68352 9.97352C5.74124 9.72341 5.83904 9.48773 5.97371 9.26969L6.14847 8.99072L5.80216 8.64441L6.10358 8.343L6.44988 8.6893L6.72885 8.51455C6.9469 8.37987 7.18258 8.28207 7.43429 8.22275L7.75334 8.1474V7.6584H8.17981V8.1474L8.49886 8.22275C8.74897 8.28047 8.98465 8.37827 9.2027 8.51294L9.48167 8.6877L9.82797 8.34139L10.1294 8.64281L9.78308 8.98912L9.95784 9.26808C10.0925 9.48613 10.1903 9.72181 10.2496 9.97192L10.325 10.291H10.814V10.695H11.3912V10.1002C11.3912 9.88695 11.218 9.71379 11.0048 9.71379H10.7803C10.7162 9.49094 10.628 9.2761 10.5142 9.07409L10.6713 8.91697C10.822 8.76626 10.822 8.52256 10.6713 8.37025L10.1005 7.79949C9.94982 7.64878 9.70452 7.64878 9.55381 7.79949L9.39669 7.95661C9.19468 7.84278 8.97984 7.7546 8.75699 7.69047V7.46601C8.75699 7.25277 8.58384 7.07962 8.3706 7.07962H7.56255C7.34932 7.07962 7.17616 7.25277 7.17616 7.46601V7.69047C6.95331 7.7546 6.73847 7.84278 6.53646 7.95661L6.37934 7.79949C6.22863 7.64718 5.98333 7.64718 5.83262 7.79949L5.26186 8.37025C5.11115 8.52096 5.11115 8.76626 5.26186 8.91697L5.41898 9.07409C5.30515 9.2761 5.21697 9.49094 5.15284 9.71379H4.92838C4.71515 9.71379 4.54199 9.88695 4.54199 10.1002V10.695H5.11917V10.6966Z" fill="#143C6A"/>
<path d="M8.52835 10.3486L7.43652 13.5872" stroke="#306BB3" stroke-width="0.49541" stroke-linecap="round" stroke-linejoin="round"/>
<path d="M9.37402 11.0573L9.93837 11.5783L10.5043 12.0978L9.93837 12.6189L9.37402 13.1399" stroke="#306BB3" stroke-width="0.49541" stroke-linecap="round" stroke-linejoin="round"/>
<path d="M6.4578 13.1399L5.89185 12.6189L5.3291 12.0978L5.89185 11.5783L6.4578 11.0573" stroke="#306BB3" stroke-width="0.49541" stroke-linecap="round" stroke-linejoin="round"/>
</g>
<circle cx="12.8491" cy="3.34682" r="2.97316" fill="#F56A00"/>
<defs>
<clipPath id="clip0_205_388">
<rect width="14.4294" height="14.4294" fill="white" transform="translate(0.716797 1)"/>
</clipPath>
</defs>
</svg>
