<svg xmlns="http://www.w3.org/2000/svg" xmlns:xlink="http://www.w3.org/1999/xlink" width="16" height="16" viewBox="0 0 16 16">
  <defs>
    <clipPath id="clip-Basic_icon">
      <rect width="16" height="16"/>
    </clipPath>
  </defs>
  <g id="Basic_icon" clip-path="url(#clip-Basic_icon)">
    <g id="Group_3909" data-name="Group 3909" transform="translate(-3920 3056)">
      <g id="Group_3908" data-name="Group 3908" transform="translate(3918 -3061)">
        <g id="Group_3764" data-name="Group 3764" transform="translate(2 8)">
          <path id="Path_1833" data-name="Path 1833" d="M28.653,70.535H14.269a.809.809,0,0,0-.808.808V81.424a1.025,1.025,0,0,0,1.024,1.024H29.091a.37.37,0,0,0,0-.74H14.485a.284.284,0,0,1-.284-.283v-6.75h14.52v7.4a.37.37,0,1,0,.74,0V71.343A.809.809,0,0,0,28.653,70.535ZM14.2,73.933v-2.59a.068.068,0,0,1,.068-.068H28.653a.068.068,0,0,1,.068.068v2.59Z" transform="translate(-13.461 -70.535)" fill="#4e6374"/>
          <path id="Path_1834" data-name="Path 1834" d="M23.633,85.57H18.269a.37.37,0,1,0,0,.74h5.364a.37.37,0,0,0,0-.74Z" transform="translate(-16.257 -80.006)" fill="#009bdd"/>
          <path id="Path_1835" data-name="Path 1835" d="M18.531,90.443h3.617a.37.37,0,0,0,0-.74H18.531a.37.37,0,0,0,0,.74Z" transform="translate(-16.422 -82.609)" fill="#009bdd"/>
          <path id="Path_1836" data-name="Path 1836" d="M18.269,94.411h5.364a.37.37,0,0,0,0-.74H18.269a.37.37,0,1,0,0,.74Z" transform="translate(-16.257 -85.109)" fill="#009bdd"/>
          <path id="Path_1837" data-name="Path 1837" d="M19.757,75.082H18.443a.37.37,0,1,0,0,.74h1.314a.37.37,0,0,0,0-.74Z" transform="translate(-16.366 -73.399)" fill="#009bdd"/>
        </g>
      </g>
      <rect id="Rectangle_573" data-name="Rectangle 573" width="16" height="16" transform="translate(3920 -3055)" fill="none"/>
    </g>
  </g>
</svg>
