<svg xmlns="http://www.w3.org/2000/svg" xmlns:xlink="http://www.w3.org/1999/xlink" width="16" height="16" viewBox="0 0 16 16">
  <defs>
    <clipPath id="clip-Basic_icon_green">
      <rect width="16" height="16"/>
    </clipPath>
  </defs>
  <g id="Basic_icon_green" clip-path="url(#clip-Basic_icon_green)">
    <g id="Group_3921" data-name="Group 3921" transform="translate(131.674 105.076)">
      <circle id="Ellipse_19" data-name="Ellipse 19" cx="3.452" cy="3.452" r="3.452" transform="translate(-122.578 -105.073)" fill="#0ea527"/>
      <path id="Path_1834" data-name="Path 1834" d="M-124.3-96.512h-5.364a.37.37,0,0,0-.371.369.371.371,0,0,0,.369.371h5.366a.37.37,0,0,0,.369-.371A.369.369,0,0,0-124.3-96.512Z" fill="#009bdd"/>
      <path id="Path_1835" data-name="Path 1835" d="M-129.565-94.242h3.617a.37.37,0,0,0,.369-.371.369.369,0,0,0-.369-.369h-3.617a.369.369,0,0,0-.369.37A.37.37,0,0,0-129.565-94.242Z" fill="#009bdd"/>
      <path id="Path_1836" data-name="Path 1836" d="M-129.662-92.774h5.364a.37.37,0,0,0,.369-.371.369.369,0,0,0-.369-.369h-5.364a.37.37,0,0,0-.371.369.371.371,0,0,0,.369.371Z" fill="#009bdd"/>
      <path id="Path_1837" data-name="Path 1837" d="M-128.283-100.393H-129.6a.37.37,0,0,0-.371.369.371.371,0,0,0,.369.371h1.316a.37.37,0,0,0,.369-.371A.369.369,0,0,0-128.283-100.393Z" fill="#009bdd"/>
      <rect id="Rectangle_573" data-name="Rectangle 573" width="16" height="15" transform="translate(-131.674 -104.076)" fill="none"/>
      <path id="Path_2027" data-name="Path 2027" d="M-116.63-97.936h.216V-90.9H-130.65a.285.285,0,0,1-.284-.283v-6.75h9.313a4.516,4.516,0,0,1-.82-.742h-8.494v-2.59a.067.067,0,0,1,.068-.068h7.318c-.006-.1-.029-.187-.029-.284a4.542,4.542,0,0,1,.046-.456h-7.334a.809.809,0,0,0-.808.808v10.081a1.026,1.026,0,0,0,1.024,1.024h14.606a.372.372,0,0,0,.341-.229.363.363,0,0,0,.029-.144h0v-8.308A4.476,4.476,0,0,1-116.63-97.936Z" fill="#4e6374"/>
    </g>
  </g>
</svg>
