<svg xmlns="http://www.w3.org/2000/svg" xmlns:xlink="http://www.w3.org/1999/xlink" width="16" height="16" viewBox="0 0 16 16">
  <defs>
    <clipPath id="clip-Full_stack_cloud_icon">
      <rect width="16" height="16"/>
    </clipPath>
  </defs>
  <g id="Full_stack_cloud_icon" clip-path="url(#clip-Full_stack_cloud_icon)">
    <g id="Full_stack_cloud_black">
      <g id="cloud_icon" transform="translate(-226 -221.55)">
        <rect id="Rectangle_521" data-name="Rectangle 521" width="16" height="16" transform="translate(226 221.55)" fill="none"/>
      </g>
      <g id="cloud_icon-2" data-name="cloud_icon" transform="translate(0 3)">
        <path id="Path_1219" data-name="Path 1219" d="M121.259,18.381h0a2.51,2.51,0,0,0-1.789-.808h-.146l-.057-.176a2.355,2.355,0,0,0-3.172-1.429l-.18.08-.115-.13a4.287,4.287,0,0,0-4.934-1.313,4.49,4.49,0,0,0-1.327.82,4.222,4.222,0,0,0-.95,1.232,4.012,4.012,0,0,0-.43,1.534l-.02.193-.165.017h0a2.314,2.314,0,0,0-1.394.749,2.136,2.136,0,0,0-.574,1.471,2.234,2.234,0,0,0,2.227,2.249h1.276v-.852h-1.276a1.287,1.287,0,0,1-.957-.418,1.376,1.376,0,0,1-.415-.98,1.334,1.334,0,0,1,.344-.915,1.291,1.291,0,0,1,.855-.443l.883-.105.071-.874a3.2,3.2,0,0,1,.356-1.218,3.56,3.56,0,0,1,.755-1,3.359,3.359,0,0,1,1.043-.659,3.405,3.405,0,0,1,1.27-.236,3.324,3.324,0,0,1,1.492.343,3.514,3.514,0,0,1,1.2.954l.527.665.8-.349h0a1.288,1.288,0,0,1,.574-.14,1.477,1.477,0,0,1,.855.284,1.373,1.373,0,0,1,.532.755l.246.77h.774a1.68,1.68,0,0,1,1.222.523,1.761,1.761,0,0,1,.482,1.249,1.78,1.78,0,0,1-.5,1.266,1.609,1.609,0,0,1-1.2.52h-.934v.852h.937a2.425,2.425,0,0,0,.991-.2,2.5,2.5,0,0,0,.811-.572,2.808,2.808,0,0,0,.547-.835,2.643,2.643,0,0,0-.53-2.879Z" transform="translate(-106.006 -14.303)" fill="#515f68"/>
        <path id="Path_1220" data-name="Path 1220" d="M122.3,35.524l-2.012-1.387h0a.4.4,0,0,0-.292-.125c-.249,0-.378.142-.378.421a.278.278,0,0,0,.084.23,1.966,1.966,0,0,1,.167.144h0l1.507,1.054a.036.036,0,0,1,0,.051h0l-1.546,1.11h0l-.144.144a.224.224,0,0,0-.05.1.421.421,0,0,0,.494.5.291.291,0,0,0,.167-.072l2.012-1.432h0a.358.358,0,0,0,.206-.372h0a.243.243,0,0,0-.041-.23,1.616,1.616,0,0,1-.167-.144Z" transform="translate(-115.3 -27.777)" fill="#0e92d0"/>
        <path id="Path_1221" data-name="Path 1221" d="M133.08,34.977h-3.309a.425.425,0,0,1-.421-.41h0a.425.425,0,0,1,.421-.425h3.309a.429.429,0,0,1,.425.425h0A.425.425,0,0,1,133.08,34.977Z" transform="translate(-121.933 -27.931)" fill="#0e92d0"/>
        <path id="Path_1222" data-name="Path 1222" d="M135.54,39.63h-2.22a.421.421,0,0,1-.425-.419h0a.423.423,0,0,1,.419-.425h2.226a.423.423,0,0,1,.426.418v.007h0a.421.421,0,0,1-.421.421h0Z" transform="translate(-124.379 -31.184)" fill="#0e92d0"/>
        <path id="Path_1223" data-name="Path 1223" d="M133.08,44.306h-3.309a.425.425,0,0,1-.421-.425h0a.425.425,0,0,1,.421-.425h3.309a.429.429,0,0,1,.425.425h0a.429.429,0,0,1-.425.425Z" transform="translate(-121.933 -34.329)" fill="#0e92d0"/>
      </g>
    </g>
  </g>
</svg>
