<svg xmlns="http://www.w3.org/2000/svg" xmlns:xlink="http://www.w3.org/1999/xlink" width="16" height="16" viewBox="0 0 16 16">
  <defs>
    <clipPath id="clip-Full_stack_cloud_green">
      <rect width="16" height="16"/>
    </clipPath>
  </defs>
  <g id="Full_stack_cloud_green" clip-path="url(#clip-Full_stack_cloud_green)">
    <g id="cap_resolved">
      <g id="dependency_cloud">
        <rect id="Rectangle_173" data-name="Rectangle 173" width="16" height="16" fill="rgba(255,255,255,0)"/>
      </g>
      <g id="Group_3329" data-name="Group 3329" transform="translate(-1 -1)">
        <path id="Path_1220" data-name="Path 1220" d="M156.338,175.1l-2.033-1.4h0a.4.4,0,0,0-.295-.127c-.252,0-.382.144-.382.426a.281.281,0,0,0,.085.233,1.943,1.943,0,0,1,.168.145h0l1.523,1.066a.036.036,0,0,1,0,.051h0l-1.562,1.121h0l-.146.146a.231.231,0,0,0-.051.1.426.426,0,0,0,.33.5.442.442,0,0,0,.17,0,.294.294,0,0,0,.168-.073l2.033-1.447h0a.361.361,0,0,0,.208-.376h0a.243.243,0,0,0-.042-.232,1.675,1.675,0,0,1-.168-.146Z" transform="translate(-148.407 -162.021)" fill="#0e92d0"/>
        <path id="Path_1221" data-name="Path 1221" d="M160.41,174.46h-3.343a.429.429,0,0,1-.426-.415h0a.429.429,0,0,1,.426-.429h3.343a.433.433,0,0,1,.429.429h0A.43.43,0,0,1,160.41,174.46Z" transform="translate(-148.407 -162.021)" fill="#0e92d0"/>
        <path id="Path_1222" data-name="Path 1222" d="M160.41,175.908h-2.243a.427.427,0,0,1-.43-.423h0a.428.428,0,0,1,.424-.429h2.249a.426.426,0,0,1,.43.422v.007h0a.426.426,0,0,1-.426.426h0Z" transform="translate(-148.407 -162.021)" fill="#0e92d0"/>
        <path id="Path_1223" data-name="Path 1223" d="M160.41,177.357h-3.343a.43.43,0,0,1-.426-.429h0a.43.43,0,0,1,.426-.43h3.343a.435.435,0,0,1,.429.43h0A.434.434,0,0,1,160.41,177.357Z" transform="translate(-148.407 -162.021)" fill="#0e92d0"/>
        <g id="Group_3296" data-name="Group 3296" transform="translate(-148.407 -162.021)">
          <path id="Path_1388" data-name="Path 1388" d="M156.993,167.673a4.2,4.2,0,0,0-2.8.1,4.431,4.431,0,0,0-1.307.81,4.185,4.185,0,0,0-.935,1.216,3.975,3.975,0,0,0-.424,1.515l-.019.191-.162.017a2.271,2.271,0,0,0-1.373.74,2.112,2.112,0,0,0-.564,1.452,2.2,2.2,0,0,0,2.184,2.221h1.264v-.842H151.6a1.263,1.263,0,0,1-.942-.412,1.358,1.358,0,0,1-.409-.968,1.323,1.323,0,0,1,.339-.9,1.274,1.274,0,0,1,.841-.437l.87-.1.07-.863a3.146,3.146,0,0,1,.35-1.2,3.52,3.52,0,0,1,.743-.991,3.318,3.318,0,0,1,1.027-.651,3.36,3.36,0,0,1,1.25-.232,3.266,3.266,0,0,1,1.4.313A4.682,4.682,0,0,1,156.993,167.673Z" fill="#515f68"/>
          <path id="Path_1389" data-name="Path 1389" d="M164.422,171.5c-.031-.034-.068-.058-.1-.089a4.734,4.734,0,0,1-.794.427,1.645,1.645,0,0,1,.3.245,1.742,1.742,0,0,1,.474,1.234,1.762,1.762,0,0,1-.49,1.25,1.581,1.581,0,0,1-1.184.514h-.919v.841h.923a2.352,2.352,0,0,0,.975-.193,2.469,2.469,0,0,0,.8-.564,2.788,2.788,0,0,0,.539-.825,2.617,2.617,0,0,0-.522-2.843Z" fill="#515f68"/>
        </g>
        <circle id="Ellipse_19" data-name="Ellipse 19" cx="3.452" cy="3.452" r="3.452" transform="translate(9.846 2)" fill="#0ea527"/>
      </g>
    </g>
  </g>
</svg>
