<svg xmlns="http://www.w3.org/2000/svg" xmlns:xlink="http://www.w3.org/1999/xlink" width="16" height="16" viewBox="0 0 16 16">
  <defs>
    <clipPath id="clip-sap_fiori_green">
      <rect width="16" height="16"/>
    </clipPath>
  </defs>
  <g id="sap_fiori_green" clip-path="url(#clip-sap_fiori_green)">
    <g id="Group_3925" data-name="Group 3925" transform="translate(14 9)">
      <g id="Group_3913" data-name="Group 3913" transform="translate(111.042 60.788)">
        <path id="Path_2002" data-name="Path 2002" d="M-109.794-62.783a4.433,4.433,0,0,1-1.522.887,6.1,6.1,0,0,0-.9,1.721,6.121,6.121,0,0,0-1.321-1.545,4.419,4.419,0,0,1-2.527-1.431,11.5,11.5,0,0,0-2.952-.671.5.5,0,0,0-.528.436c-.008.062-.623,5.373,3.045,7.362a5.124,5.124,0,0,0-2.49,1.147h0a.5.5,0,0,0,.017.707.5.5,0,0,0,.345.138.5.5,0,0,0,.365-.154c.486-.51,1.716-.9,3.656-1.151.267-.035.674-.088.674-.528a.508.508,0,0,0-.431-.5c-4.116-.637-4.29-4.916-4.224-6.4,1.391.21,5.3,1.1,6.082,4.552a.5.5,0,0,0,.542.387.5.5,0,0,0,.446-.494,5.127,5.127,0,0,1,1.684-3.757.5.5,0,0,0,.035-.706Z" fill="#008acf"/>
        <g id="Path_1604" data-name="Path 1604">
          <g id="Group_3911" data-name="Group 3911">
            <path id="Path_1996" data-name="Path 1996" d="M-122.42-68.533" fill="#fff"/>
          </g>
          <g id="Group_3912" data-name="Group 3912">
            <path id="Path_1997" data-name="Path 1997" d="M-122.442-68.533" fill="#4b4b4b"/>
          </g>
        </g>
        <g id="Group_3520" data-name="Group 3520">
          <g id="Path_1607" data-name="Path 1607">
            <path id="Path_2001" data-name="Path 2001" d="M-120.055-55.024a.492.492,0,0,1-.21-.047c-.266-.123-1.592-.791-1.524-1.8.069-1.029,1.544-1.485,2.029-1.635a.5.5,0,0,1,.625.33.5.5,0,0,1-.33.625c-1.288.4-1.326.743-1.326.747-.015.205.507.617.947.823a.5.5,0,0,1,.244.663A.5.5,0,0,1-120.055-55.024Z" fill="#008acf"/>
          </g>
        </g>
        <circle id="Ellipse_19" data-name="Ellipse 19" cx="3.452" cy="3.452" r="3.452" transform="translate(-116.196 -69.544)" fill="#0ea527"/>
        <path id="Path_2003" data-name="Path 2003" d="M-121.513-59.956h-1.529v-7.588h6.11a4.447,4.447,0,0,1,.478-1h-6.888a.7.7,0,0,0-.7.7v8.388a.5.5,0,0,0,.5.5h2.029a.5.5,0,0,0,.5-.5A.5.5,0,0,0-121.513-59.956Z" fill="#515f68"/>
      </g>
      <rect id="Rectangle_576" data-name="Rectangle 576" width="16" height="16" transform="translate(-14 -9)" fill="none"/>
    </g>
  </g>
</svg>
