<svg xmlns="http://www.w3.org/2000/svg" xmlns:xlink="http://www.w3.org/1999/xlink" width="16" height="16" viewBox="0 0 16 16">
  <defs>
    <clipPath id="clip-sap_fiori_icon">
      <rect width="16" height="16"/>
    </clipPath>
  </defs>
  <g id="sap_fiori_icon" clip-path="url(#clip-sap_fiori_icon)">
    <g id="cloud_icon" transform="translate(-226 -221.55)">
      <rect id="Rectangle_521" data-name="Rectangle 521" width="16" height="16" transform="translate(226 221.55)" fill="none"/>
    </g>
    <g id="Group_3523" data-name="Group 3523" transform="translate(137.842 45.771)">
      <g id="Path_1604" data-name="Path 1604">
        <g id="Group_3911" data-name="Group 3911">
          <path id="Path_1996" data-name="Path 1996" d="M-135.22-44.76" fill="#fff"/>
        </g>
        <g id="Group_3912" data-name="Group 3912">
          <path id="Path_1997" data-name="Path 1997" d="M-135.242-44.76h0Z" fill="#5d5d5d"/>
        </g>
      </g>
      <g id="Path_1603" data-name="Path 1603">
        <path id="Path_1998" data-name="Path 1998" d="M-134.313-35.183h-2.029a.5.5,0,0,1-.5-.5v-8.388a.7.7,0,0,1,.7-.7h11.6a.5.5,0,0,1,.5.5v1.742a.5.5,0,0,1-.5.5.5.5,0,0,1-.5-.5v-1.242h-10.8v7.588h1.529a.5.5,0,0,1,.5.5A.5.5,0,0,1-134.313-35.183Z" fill="#515f68"/>
      </g>
      <g id="Group_3520" data-name="Group 3520">
        <g id="Path_1605" data-name="Path 1605">
          <path id="Path_1999" data-name="Path 1999" d="M-131.423-30.259a.5.5,0,0,1-.345-.138.5.5,0,0,1-.017-.707,5.125,5.125,0,0,1,2.49-1.147c-3.668-1.989-3.053-7.3-3.045-7.362a.5.5,0,0,1,.528-.436c.225.014,4.844.355,6.8,3.647a6.113,6.113,0,0,1,1.712-2.644.5.5,0,0,1,.706.036.5.5,0,0,1-.035.706,5.127,5.127,0,0,0-1.684,3.757.5.5,0,0,1-.446.494.5.5,0,0,1-.542-.387c-.779-3.447-4.691-4.342-6.082-4.552-.066,1.484.108,5.763,4.224,6.4a.508.508,0,0,1,.431.5c0,.44-.407.493-.674.528-1.94.254-3.17.641-3.656,1.151A.5.5,0,0,1-131.423-30.259Z" fill="#008acf"/>
        </g>
        <g id="Path_1606" data-name="Path 1606">
          <path id="Path_2000" data-name="Path 2000" d="M-125.791-38.34a.5.5,0,0,1-.471-.336c-.1-.277-.538-1.694.232-2.345.79-.664,2.142.078,2.587.321a.5.5,0,0,1,.2.679.5.5,0,0,1-.679.2c-1.181-.648-1.456-.436-1.46-.434-.142.12-.109.741.068,1.254a.5.5,0,0,1-.31.635A.492.492,0,0,1-125.791-38.34Z" fill="#008acf"/>
        </g>
        <g id="Path_1607" data-name="Path 1607">
          <path id="Path_2001" data-name="Path 2001" d="M-132.855-31.251a.5.5,0,0,1-.21-.047c-.266-.123-1.592-.791-1.524-1.8.069-1.029,1.544-1.485,2.029-1.635a.5.5,0,0,1,.625.33.5.5,0,0,1-.33.625c-1.288.4-1.326.743-1.326.747-.015.205.507.617.947.823a.5.5,0,0,1,.244.663A.5.5,0,0,1-132.855-31.251Z" fill="#008acf"/>
        </g>
      </g>
    </g>
  </g>
</svg>
