<svg xmlns="http://www.w3.org/2000/svg" xmlns:xlink="http://www.w3.org/1999/xlink" width="16" height="16" viewBox="0 0 16 16">
  <defs>
    <clipPath id="clip-sap_hana_green">
      <rect width="16" height="16"/>
    </clipPath>
  </defs>
  <g id="sap_hana_green" clip-path="url(#clip-sap_hana_green)">
    <g id="Group_3918" data-name="Group 3918" transform="translate(-3913 3021)">
      <rect id="Rectangle_575" data-name="Rectangle 575" width="16" height="16" transform="translate(3913 -3021)" fill="none"/>
      <g id="Group_3917" data-name="Group 3917" transform="translate(4054.066 -2943.659)">
        <circle id="Ellipse_19" data-name="Ellipse 19" cx="3.452" cy="3.452" r="3.452" transform="translate(-132.802 -76.957)" fill="#0ea527"/>
        <g id="Group_3916" data-name="Group 3916">
          <path id="Path_2011" data-name="Path 2011" d="M-134.008-64.458l-2.5-1.494v2.734l2.5,1.493,2.47-1.493V-65.95Z" fill="#7baedf" stroke="#283d53" stroke-miterlimit="10" stroke-width="0.4"/>
          <path id="Path_2012" data-name="Path 2012" d="M-133.789-73.638a4.4,4.4,0,0,1,.609-2.1l-.83-.5-2.308,1.377,2.308,1.355Z" fill="#7baedf" stroke="#283d53" stroke-miterlimit="10" stroke-width="0.4"/>
          <path id="Path_2013" data-name="Path 2013" d="M-130.088-66.744v2.76l2.271-1.373v-2.736Z" fill="#7baedf" stroke="#283d53" stroke-miterlimit="10" stroke-width="0.4"/>
          <path id="Path_2014" data-name="Path 2014" d="M-137.764-74.094l-2.469,1.493,0,2.962,2.271,1.372v-2.949l2.478-1.523Z" fill="#7baedf" stroke="#283d53" stroke-miterlimit="10" stroke-width="0.4"/>
          <path id="Path_2015" data-name="Path 2015" d="M-140.23-68.093v2.736l2.271,1.373v-2.761Z" fill="#7baedf" stroke="#283d53" stroke-miterlimit="10" stroke-width="0.4"/>
          <path id="Path_2016" data-name="Path 2016" d="M-129.35-69.053a4.386,4.386,0,0,1-.739-.075v.868l1.418-.862A4.351,4.351,0,0,1-129.35-69.053Z" fill="#7baedf" stroke="#283d53" stroke-miterlimit="10" stroke-width="0.4"/>
          <path id="Path_2017" data-name="Path 2017" d="M-133.338-71.565l-.668-.4-2.5,1.466v3l2.5,1.466,2.47-1.464v-2.156A4.441,4.441,0,0,1-133.338-71.565Z" fill="#7baedf" stroke="#283d53" stroke-miterlimit="10" stroke-width="0.4"/>
        </g>
      </g>
    </g>
  </g>
</svg>
