<svg xmlns="http://www.w3.org/2000/svg" xmlns:xlink="http://www.w3.org/1999/xlink" width="16" height="16" viewBox="0 0 16 16">
  <defs>
    <clipPath id="clip-path">
      <rect id="Rectangle_538" data-name="Rectangle 538" width="15.692" height="15.692" fill="none"/>
    </clipPath>
    <clipPath id="clip-sap_hana_icon">
      <rect width="16" height="16"/>
    </clipPath>
  </defs>
  <g id="sap_hana_icon" clip-path="url(#clip-sap_hana_icon)">
    <g id="Group_3905" data-name="Group 3905" transform="translate(-3928 3011)">
      <rect id="Rectangle_571" data-name="Rectangle 571" width="16" height="16" transform="translate(3928 -3011)" fill="none"/>
      <g id="Group_3904" data-name="Group 3904" transform="translate(3783.366 -3076.183)">
        <g id="Group_3765" data-name="Group 3765" transform="translate(144.634 65.183)" clip-path="url(#clip-path)">
          <g id="_HANA_dev_spave_48x48" data-name=" HANA dev spave 48x48" transform="translate(1.274 0.26)">
            <g id="Path_1547" data-name="Path 1547">
              <path id="Path_1838" data-name="Path 1838" d="M153.689,70.144l-2.667,1.641v3.194l-2.666-1.611V70.174l2.666-1.612Zm-5.333,4.307,2.666,1.583v3.223l-2.666-1.611Zm6.417-4.834-2.7-1.582,2.7-1.612,2.667,1.612Zm0,1.084,2.667,1.583v3.223l-2.667,1.581-2.7-1.582V72.283Zm0,7.5,2.667-1.612v3.194L154.773,81.4l-2.7-1.612V76.59Zm6.388-8.028v3.194l-2.667,1.612V71.785l-2.666-1.612,2.666-1.612Zm-2.667,5.86,2.667-1.583v3.194l-2.667,1.611Z" transform="translate(-148.158 -66.193)" fill="#7baedf"/>
              <path id="Path_1839" data-name="Path 1839" d="M154.471,81.275l-2.894-1.73V75.89l2.893,1.73,2.865-1.732v3.656Zm-2.5-1.954,2.5,1.493,2.47-1.493V76.589l-2.469,1.492-2.5-1.494Zm-1.055-.065L147.856,77.4V73.752l3.061,1.817Zm-2.666-2.074,2.271,1.373V75.794l-2.271-1.348Zm9.742,2.074V75.569l3.062-1.817V77.4Zm.4-3.461v2.76l2.271-1.373V74.446Zm-3.918,1.17-2.894-1.7V71.818l2.894-1.7,2.864,1.7v3.448Zm-2.5-1.924,2.5,1.466,2.47-1.464v-3l-2.47-1.466-2.5,1.466Zm6.022-.062V71.545l-2.851-1.723,3.048-1.842,2.864,1.731v3.417Zm-2.087-5.156,2.482,1.5v2.955L160.66,72.9V69.933l-2.469-1.492Zm-4.99,5.156-3.061-1.851V69.71l2.862-1.731,3.05,1.809-2.851,1.754ZM148.251,72.9l2.271,1.372V71.323L153,69.8l-2.284-1.355-2.469,1.493Zm6.22-3.41-3.084-1.81,3.084-1.843,3.051,1.843Zm-2.309-1.813,2.308,1.355,2.283-1.355L154.47,66.3Z" transform="translate(-147.856 -65.841)" fill="#283d53"/>
            </g>
          </g>
        </g>
      </g>
    </g>
  </g>
</svg>
