<svg width="17" height="17" viewBox="0 0 17 17" fill="none" xmlns="http://www.w3.org/2000/svg">
<path d="M12.4372 3.75842V3.70508L13.3972 4.71838V2.47839L12.9171 1.94507H3.90381L3.42383 2.47839V13.2518L3.74384 13.7318L8.75714 15.4384L9.39716 14.9584V13.9451H12.9171L13.3972 13.4651V11.2251L12.4372 12.2384V12.985H9.39716V4.6651L9.07715 4.2384L5.4505 2.95844H12.4372V3.75842ZM8.38382 14.2651L4.38382 12.9318V3.70508L8.38382 5.03839V14.2651ZM11.4771 7.49176H16.4372V8.50507H11.5305L13.1305 10.1051L12.3838 10.7984L9.93048 8.34509V7.65173L12.4372 5.14508L13.1305 5.83838L11.4771 7.49176Z" fill="#9A9A9A"/>
</svg>
