<svg xmlns="http://www.w3.org/2000/svg" xmlns:xlink="http://www.w3.org/1999/xlink" width="16" height="16" viewBox="0 0 16 16">
  <defs>
    <clipPath id="clip-sap_sme_icon_">
      <rect width="16" height="16"/>
    </clipPath>
  </defs>
  <g id="sap_sme_icon_" data-name="sap_sme_icon " clip-path="url(#clip-sap_sme_icon_)">
    <g id="Group_3910" data-name="Group 3910" transform="translate(-1 15)">
      <rect id="Rectangle_574" data-name="Rectangle 574" width="16" height="16" transform="translate(1 -15)" fill="none"/>
      <g id="CAP_icon_56x56" data-name="CAP icon 56x56" transform="translate(112.151 33.917)">
        <path id="Path_1219" data-name="Path 1219" d="M-96.3-42.979h0a2.545,2.545,0,0,0-1.753-.787h-.138l-.061-.182a2.174,2.174,0,0,0-.83-1.12,2.27,2.27,0,0,0-2.275-.242l-.184.091-.123-.121a3.882,3.882,0,0,0-3.26-1.574,3.881,3.881,0,0,0-1.537.3,4.343,4.343,0,0,0-1.291.787,4.407,4.407,0,0,0-.922,1.181,4.14,4.14,0,0,0-.43,1.483v.184l-.154.03h0a2.179,2.179,0,0,0-1.872,2.448,2.174,2.174,0,0,0,.611,1.245,2.2,2.2,0,0,0,1.537.636h1.26v-.817h-1.307a1.235,1.235,0,0,1-.922-.394,1.308,1.308,0,0,1-.03-1.849,1.307,1.307,0,0,1,.8-.391l.861-.091.056-.847a3.075,3.075,0,0,1,.338-1.181,3.265,3.265,0,0,1,.738-.969,3.378,3.378,0,0,1,2.244-.878,3.38,3.38,0,0,1,1.445.333,3.465,3.465,0,0,1,1.168.908l.553.6.8-.333h0a1.229,1.229,0,0,1,.553-.121,1.369,1.369,0,0,1,.83.272,1.4,1.4,0,0,1,.523.726l.261.766h.769a1.668,1.668,0,0,1,1.661,1.673v.052a1.72,1.72,0,0,1-1.66,1.725h-.922v.817h.922a2.691,2.691,0,0,0,.984-.182,2.076,2.076,0,0,0,.8-.545,2.855,2.855,0,0,0,.523-.817,2.7,2.7,0,0,0-.553-2.815Z" fill="#4f6374"/>
        <path id="Path_1974" data-name="Path 1974" d="M-100.786-41.171l-.6-.6-.3.272-.242.212-.3-.151a.682.682,0,0,1-.151-.091c-.061-.03-.121-.03-.151-.061l-.3-.121v-.7h-.863v.7l-.3.121c-.061.03-.121.03-.182.061l-.182.091-.272.151-.242-.212-.272-.272-.651.645.272.272.212.242-.151.272-.091.182c-.03.061-.03.121-.061.182l-.121.3h-.681v.878h.7l.121.3c.03.061.03.121.061.151a.646.646,0,0,0,.091.151l.151.3-.225.25-.272.272.424.424-.272.333-.454-.454a.39.39,0,0,1-.121-.3.349.349,0,0,1,.121-.3l.272-.272-.091-.182a1.52,1.52,0,0,1-.091-.212h-.4a.352.352,0,0,1-.3-.121.39.39,0,0,1-.121-.3V-39.7a.349.349,0,0,1,.121-.3.383.383,0,0,1,.3-.121h.394c.03-.061.03-.151.091-.212l.091-.182-.272-.272a.431.431,0,0,1-.121-.3.388.388,0,0,1,.121-.3l.636-.636a.383.383,0,0,1,.3-.121.349.349,0,0,1,.3.121l.272.272.182-.091a1.367,1.367,0,0,1,.212-.091v-.408a.349.349,0,0,1,.121-.3.383.383,0,0,1,.3-.121h.878a.349.349,0,0,1,.3.121.388.388,0,0,1,.121.3v.394c.061.03.151.03.212.091l.182.091.272-.272a.437.437,0,0,1,.6,0l.636.636a.439.439,0,0,1,0,.6l-.272.272.151.363h-.484c.091-.061.091-.091.091-.121s-.03-.061-.03-.091l-.151-.272.242-.242Zm-2.169,2.841a.324.324,0,0,1,.061.363l-.878,1.12.878,1.12a.327.327,0,0,1,.03.151.229.229,0,0,1-.061.151.18.18,0,0,1-.182.091.259.259,0,0,1-.182-.091l-1.119-1.422,1.12-1.423a.182.182,0,0,1,.182-.091A.271.271,0,0,1-102.955-38.33Zm.312-1.144a.741.741,0,0,0-.3-.3.792.792,0,0,0-.454-.121.8.8,0,0,0-.575.212.9.9,0,0,0-.3.515l-.395.481a1.049,1.049,0,0,1-.061-.333,1.21,1.21,0,0,1,.394-.938,1.261,1.261,0,0,1,.938-.394,1.434,1.434,0,0,1,.787.242,1.5,1.5,0,0,1,.484.636Zm1.491,1.111c.061-.121.149-.264.27-.264a.255.255,0,0,1,.182.091.494.494,0,0,1,.061.151v.091l-1,3.027a.23.23,0,0,1-.242.182.259.259,0,0,1-.182-.091.222.222,0,0,1-.061-.182v-.091l1-3Zm2.712,1.507-1.12,1.423a.277.277,0,0,1-.212.091.229.229,0,0,1-.151-.061.182.182,0,0,1-.091-.182.229.229,0,0,1,.061-.151l.878-1.12-.878-1.12a.229.229,0,0,1-.061-.151.223.223,0,0,1,.2-.242h.037a.33.33,0,0,1,.212.091Z" fill="#009bdd" stroke="#009bdd" stroke-miterlimit="10" stroke-width="0.25"/>
      </g>
    </g>
  </g>
</svg>
