<svg xmlns="http://www.w3.org/2000/svg" xmlns:xlink="http://www.w3.org/1999/xlink" width="16" height="16" viewBox="0 0 16 16">
  <defs>
    <clipPath id="clip-sap_sme_green">
      <rect width="16" height="16"/>
    </clipPath>
  </defs>
  <g id="sap_sme_green" clip-path="url(#clip-sap_sme_green)">
    <g id="Group_3924" data-name="Group 3924" transform="translate(141.183 110.574)">
      <rect id="Rectangle_574" data-name="Rectangle 574" width="16" height="16" transform="translate(-141.183 -110.574)" fill="none"/>
      <g id="Group_3922" data-name="Group 3922">
        <path id="Path_2028" data-name="Path 2028" d="M-133.187-108.21a3.878,3.878,0,0,0-1.769-.361,3.9,3.9,0,0,0-1.537.3,4.343,4.343,0,0,0-1.291.787,4.427,4.427,0,0,0-.922,1.181,4.14,4.14,0,0,0-.43,1.483v.184l-.154.03a2.179,2.179,0,0,0-1.872,2.448h0a2.177,2.177,0,0,0,.611,1.245,2.2,2.2,0,0,0,1.537.636h1.26v-.817h-1.307a1.235,1.235,0,0,1-.922-.394,1.309,1.309,0,0,1-.03-1.849,1.31,1.31,0,0,1,.8-.391l.861-.091.056-.847a3.075,3.075,0,0,1,.338-1.181,3.282,3.282,0,0,1,.738-.969,3.383,3.383,0,0,1,2.244-.878,3.391,3.391,0,0,1,1.445.333c.073.035.135.087.2.126A4.411,4.411,0,0,1-133.187-108.21Z" fill="#4f6374"/>
        <path id="Path_2029" data-name="Path 2029" d="M-126.5-103.377a1.638,1.638,0,0,1,.085.507v.052a1.719,1.719,0,0,1-1.66,1.725h-.922v.817h.922a2.667,2.667,0,0,0,.984-.182,2.076,2.076,0,0,0,.8-.545,2.834,2.834,0,0,0,.523-.817,2.684,2.684,0,0,0-.074-2.073A4.439,4.439,0,0,1-126.5-103.377Z" fill="#4f6374"/>
      </g>
      <circle id="Ellipse_19" data-name="Ellipse 19" cx="3.452" cy="3.452" r="3.452" transform="translate(-132.338 -110.574)" fill="#0ea527"/>
      <g id="Group_3923" data-name="Group 3923">
        <path id="Path_2030" data-name="Path 2030" d="M-133.8-98.5l.878-1.12a.324.324,0,0,0-.061-.363.271.271,0,0,0-.151-.031.185.185,0,0,0-.182.091l-1.12,1.423,1.119,1.422a.259.259,0,0,0,.182.091.18.18,0,0,0,.182-.091.229.229,0,0,0,.061-.151.327.327,0,0,0-.03-.151Z" fill="#009bdd" stroke="#009bdd" stroke-miterlimit="10" stroke-width="0.25"/>
        <path id="Path_2031" data-name="Path 2031" d="M-130.914-100.284c-.121,0-.209.143-.27.264l.028-.086-1,3v.091a.222.222,0,0,0,.061.182.259.259,0,0,0,.182.091.229.229,0,0,0,.242-.182l1-3.027v-.091a.494.494,0,0,0-.061-.151A.255.255,0,0,0-130.914-100.284Z" fill="#009bdd" stroke="#009bdd" stroke-miterlimit="10" stroke-width="0.25"/>
        <path id="Path_2032" data-name="Path 2032" d="M-133.428-102.009a1.264,1.264,0,0,0-.938.394,1.21,1.21,0,0,0-.394.938,1.049,1.049,0,0,0,.061.333l.4-.481a.906.906,0,0,1,.3-.515.8.8,0,0,1,.575-.212.8.8,0,0,1,.454.121.741.741,0,0,1,.3.3h.518a1.5,1.5,0,0,0-.484-.636A1.431,1.431,0,0,0-133.428-102.009Z" fill="#009bdd" stroke="#009bdd" stroke-miterlimit="10" stroke-width="0.25"/>
        <path id="Path_2033" data-name="Path 2033" d="M-129.809-100.026h-.037a.223.223,0,0,0-.2.242.229.229,0,0,0,.061.151l.878,1.12-.878,1.12a.229.229,0,0,0-.061.151.183.183,0,0,0,.091.182A.229.229,0,0,0-129.8-97a.275.275,0,0,0,.212-.091l1.12-1.423-1.125-1.422A.328.328,0,0,0-129.809-100.026Z" fill="#009bdd" stroke="#009bdd" stroke-miterlimit="10" stroke-width="0.25"/>
        <path id="Path_2034" data-name="Path 2034" d="M-131.756-103.747a.394.394,0,0,0-.084.053l-.272.272-.182-.091c-.061-.061-.151-.061-.212-.091V-104a.39.39,0,0,0-.121-.3.349.349,0,0,0-.3-.121h-.878a.381.381,0,0,0-.3.121.349.349,0,0,0-.121.3v.408a1.367,1.367,0,0,0-.212.091l-.182.091-.272-.272a.349.349,0,0,0-.3-.121.381.381,0,0,0-.3.121l-.636.636a.389.389,0,0,0-.121.3.43.43,0,0,0,.121.3l.272.272-.091.182c-.061.061-.061.151-.091.212h-.394a.381.381,0,0,0-.3.121.349.349,0,0,0-.121.3v.942a.39.39,0,0,0,.121.3.35.35,0,0,0,.3.121h.4a1.59,1.59,0,0,0,.091.212l.091.182-.272.272a.349.349,0,0,0-.121.3.39.39,0,0,0,.121.3l.454.454.272-.333-.424-.424.272-.272.225-.25-.151-.3a.682.682,0,0,1-.091-.151c-.031-.03-.031-.09-.061-.151l-.121-.3h-.7v-.878h.681l.121-.3c.031-.061.031-.121.061-.182l.091-.182.151-.272-.212-.242-.272-.272.651-.645.272.272.242.212.272-.151.182-.091c.061-.031.121-.031.182-.061l.3-.121v-.7h.863v.7l.3.121c.03.031.09.031.151.061a.682.682,0,0,0,.151.091l.3.151.242-.212.3-.272.6.6-.239.279-.242.242.151.272c0,.03.03.061.03.091s0,.06-.091.121h.484l-.151-.363.272-.272a.433.433,0,0,0,.033-.548A4.443,4.443,0,0,1-131.756-103.747Z" fill="#009bdd" stroke="#009bdd" stroke-miterlimit="10" stroke-width="0.25"/>
      </g>
    </g>
  </g>
</svg>
