<svg width="16" height="18" viewBox="0 0 16 18" fill="none" xmlns="http://www.w3.org/2000/svg">
<g clip-path="url(#clip0_104_427)">
<path d="M0 11.8732L0.0587884 11.186L0.125686 10.4014L0.142917 10.1987L0.326377 10.0974L6.79108 6.67447L6.98569 6.57311L7.17219 6.69068L7.33031 6.79204L7.88576 7.14376L8.44425 7.49852L7.85738 7.8026L0.608156 11.5559L0 11.8732ZM0.191569 9.38177L0.251371 8.68848L0.327391 7.81679L0.345636 7.60799L0.531123 7.51169L4.7051 5.35173L4.8987 5.25037L5.08317 5.36693L5.77748 5.80176L6.33496 6.15449L5.75113 6.45857L0.810875 9.05844L0.191569 9.38177Z" fill="white"/>
<path d="M6.95312 11.6715L7.56128 11.3492L14.775 7.534L15.3599 7.22485L15.3335 7.88572L15.3051 8.54354L15.297 8.73004L15.2869 8.94999L15.0913 9.05135L8.5982 12.4145L8.41371 12.5097L8.23431 12.4084L7.55115 12.0161L6.95312 11.6715ZM9.10905 12.9334L9.73037 12.6111L14.6818 10.0285L15.2656 9.72438L15.2372 10.3832L15.2038 11.2022L15.1947 11.4201L15.0011 11.5215L10.8453 13.7189L10.6609 13.8203L10.4794 13.7189L9.71922 13.2851L9.11107 12.9395L9.10905 12.9334Z" fill="white"/>
<path d="M0.110352 12.6122L0.718508 12.2929L1.4189 11.929L1.60338 11.8337L1.78379 11.9351L8.137 15.5587L8.32857 15.6681V17.3913L7.7569 17.0588L0.709385 12.9588L0.113392 12.6122H0.110352ZM2.31695 11.4384L2.93929 11.1181L3.7157 10.7127L3.90119 10.6113L4.08263 10.7127L8.14612 13.0764L8.33465 13.1859V13.4038V14.2258V14.8846L7.76298 14.5562L2.91902 11.7851L2.31695 11.4384Z" fill="#33A6FF"/>
<path fill-rule="evenodd" clip-rule="evenodd" d="M7.66081 1.80349L7.19036 1.5L7.18225 2.19026L7.17414 2.97681V3.18459L7.34746 3.29812L7.5185 3.41079C7.50626 3.2755 7.5 3.13848 7.5 3C7.5 2.5857 7.55599 2.18448 7.66081 1.80349ZM11.338 5.92671L9.57345 4.7644C9.21279 4.26924 9 3.65947 9 3C9 2.89141 9.00577 2.78416 9.01702 2.67855L13.5224 5.58557C13.0761 5.84891 12.5557 6 12 6C11.7725 6 11.551 5.97468 11.338 5.92671ZM12.4703 7.47572L12.9557 7.7934L12.3658 8.08836L11.6329 8.45934L11.4383 8.56069L11.2549 8.4421L7.30185 5.89292L7.12549 5.77939V5.57059L7.13258 4.69485L7.13866 3.99952L7.14576 3.99851L7.71181 4.36832C8.29085 6.18455 9.99181 7.5 12 7.5C12.1588 7.5 12.3157 7.49177 12.4703 7.47572ZM13.3929 7.28029C13.9416 7.10183 14.4441 6.82078 14.8777 6.45977L15.1825 6.65615L14.5936 6.96023L14.0068 7.25823L13.8395 7.34337L13.6429 7.44473L13.4594 7.32411L13.3929 7.28029Z" fill="#33A6FF"/>
<path d="M12 6C13.6569 6 15 4.65685 15 3C15 1.34315 13.6569 0 12 0C10.3431 0 9 1.34315 9 3C9 4.65685 10.3431 6 12 6Z" fill="#5D36FF"/>
</g>
<defs>
<clipPath id="clip0_104_427">
<rect width="16" height="18" fill="white"/>
</clipPath>
</defs>
</svg>
